<?xml version="1.0" encoding="utf-8"?>
<!-- Svg Vector Icons : http://www.onlinewebfonts.com/icon -->
<!DOCTYPE svg PUBLIC "-//W3C//DTD SVG 1.1//EN" "http://www.w3.org/Graphics/SVG/1.1/DTD/svg11.dtd">
<svg version="1.1" xmlns="http://www.w3.org/2000/svg" xmlns:xlink="http://www.w3.org/1999/xlink" x="0px" y="0px" viewBox="0 0 1000 1000" enable-background="new 0 0 1000 1000" xml:space="preserve">
<metadata> Svg Vector Icons : http://www.onlinewebfonts.com/icon </metadata>
<g><g transform="translate(0.000000,512.000000) scale(0.100000,-0.100000)"><path d="M4563.1,5003.1c-252.9-23-509.6-69-800.8-141.8c-335.3-86.2-570.9-174.3-917.7-344.8c-536.4-262.5-862.1-496.2-1302.8-938.7c-442.6-440.6-676.3-766.3-938.7-1302.7C304.2,1667.7,160.5,1125.5,110.7,430.1c-46-641.8,57.5-1377.5,281.6-1988.6c101.5-279.7,350.6-772.1,515.4-1019.2c641.8-965.6,1626.5-1693.6,2716.6-2005.8c1557.5-450.2,3193.7-120.7,4460,896.6c396.6,318,833.4,816.2,1097.8,1249.1c883.2,1452.2,956,3245.4,193.5,4762.7c-373.6,745.2-971.3,1417.7-1678.3,1887.1c-247.1,164.8-739.5,413.8-1019.2,515.4C6030.6,4964.8,5258.5,5064.4,4563.1,5003.1z M5471.2,4926.5c1415.8-139.8,2693.6-894.7,3509.8-2074.8c846.8-1222.3,1074.8-2816.2,607.3-4235.9c-480.9-1463.7-1622.7-2603.6-3084.5-3084.5c-603.5-199.2-1310.4-279.7-1936.9-222.2C2074.4-4460.9,172-2378.5,172,119.7c0,2128.5,1392.8,4006,3431.2,4624.8c251,74.7,653.3,157.1,898.5,182C4741.2,4949.5,5229.8,4951.4,5471.2,4926.5z"/><path d="M4570.7,2146.7c-411.9-34.5-929.2-170.5-1268.3-333.3c-471.3-224.1-814.2-561.3-923.4-908.1c-26.8-90-32.6-191.6-32.6-689.7c0-557.5,1.9-590.1,42.1-697.4c134.1-352.5,450.2-661,900.4-875.5c216.5-103.4,563.2-216.5,823.8-270.1l212.6-42.1l11.5-69c5.8-42.2,34.5-90.1,69-124.5l59.4-57.5h534.5h534.5l59.4,57.5c34.5,34.5,63.2,82.4,69,124.5l11.5,69l212.6,42.1c434.9,90.1,798.9,237.6,1333.4,542.2c291.2,168.6,469.4,308.4,519.2,410c36.4,76.6,38.3,88.1,13.4,149.4c-15.3,36.4-44.1,78.6-63.2,92c-34.5,24.9-36.4,65.1-36.4,639.9c0,588.2-1.9,616.9-42.1,726.1c-67.1,176.3-157.1,312.3-304.6,461.7C6758.6,1947.4,5676.1,2244.4,4570.7,2146.7z M5442.4,2073.9c601.6-61.3,1172.5-251,1559.5-519.2c193.5-132.2,408.1-362.1,484.7-519.2c57.5-116.9,82.4-193.5,42.2-130.3c-38.3,59.4-34.5,1.9,3.8-97.7c55.5-136,63.2-492.4,13.4-580.5l-30.7-55.6l-34.5,49.8c-49.8,78.5-76.6,61.3-28.7-17.2c28.7-44.1,36.4-74.7,24.9-86.2c-13.4-13.4-57.5,34.5-130.3,139.9c-524.9,754.8-1561.4,1197.4-2601.7,1111.2C3871.5,1296,3089.8,882.2,2654.9,257.7c-101.5-145.6-164.8-189.7-134.1-95.8c9.6,30.6,5.7,38.3-17.2,28.7c-23-7.7-38.3,11.5-63.2,74.7c-38.3,101.5-28.7,390.8,19.2,521.1c15.3,44.1,21.1,80.5,11.5,80.5c-30.7,0-21.1,38.3,42.1,168.6c76.6,157.1,291.2,387,484.7,519.2c375.5,260.6,957.9,457.9,1525,517.3C4754.6,2094.9,5212.5,2096.9,5442.4,2073.9z M5599.5,1252c578.6-115,1099.7-394.7,1479-789.3C7243.3,292.2,7394.6,79.5,7394.6,24c0-78.6-369.7-365.9-661-513.5c-256.7-128.3-699.3-268.2-959.8-302.7c-95.8-11.5-99.6-9.6-166.7,61.3l-67.1,74.7h-540.3h-540.3l-67.1-74.7c-67.1-70.9-70.9-72.8-166.7-61.3c-139.9,19.2-438.7,97.7-636.1,166.7c-342.9,120.7-716.5,344.9-915.8,549.8c-92,97.7-88.1,120.7,61.3,323.8c421.5,565.2,1126.5,946.4,1938.8,1047.9C4850.4,1317.1,5398.3,1290.3,5599.5,1252z M2624.3-115.9c327.6-342.9,873.6-609.2,1480.9-726.1c183.9-36.4,224.2-49.8,224.2-76.6c0-21.1-9.6-28.7-28.7-23c-15.3,7.7-28.7,1.9-28.7-9.6s13.4-21.1,28.7-21.1c26.8,0,30.7-42.2,26.8-306.5c-3.8-358.3,26.8-331.4-285.5-260.6c-375.5,84.3-764.4,243.3-1017.3,415.7c-159,105.4-364,304.6-448.3,431.1c-86.2,128.3-160.9,318-130.3,327.6c17.2,5.8,15.3,28.7-5.8,86.2c-30.7,90-36.4,264.4-7.7,264.4c13.4,0,13.4,11.5,0,36.4c-9.6,21.1-19.2,53.6-17.2,72.8c0,28.7,5.7,26.8,32.6-13.4C2465.3,54.6,2543.8-33.5,2624.3-115.9z M7570.9-330.5c-11.5-21.1-69-30.7-251-34.5c-201.2-5.7-231.8-3.8-201.2,17.2c101.6,70.9,318,277.8,383.2,367.8l74.7,101.6l5.7-212.7C7584.3-207.9,7580.5-315.2,7570.9-330.5z M7536.4-453.1c101.5-17.2,164.8-70.9,164.8-141.8c0-107.3-337.2-344.8-890.9-626.5C6478.9-1389.9,6235.6-1478,5929-1547c-264.4-57.5-258.6-59.4-258.6,76.6c0,61.3,9.6,136,23,162.8c17.2,40.2,17.2,59.4,0,88.1c-34.5,55.6-30.7,247.1,5.8,247.1c15.3,0,28.7,9.6,28.7,19.2c0,11.5-13.4,19.2-28.7,19.2s-28.7,11.5-28.7,24.9c0,15.3,65.1,36.4,187.7,59.4c254.8,47.9,526.8,130.3,789.3,241.4C6990.4-464.6,7289.3-412.9,7536.4-453.1z M4942.4-838.2c0-23-201.2-23-325.7-1.9c-70.9,13.4-47.9,17.2,120.7,19.2C4861.9-819,4942.4-826.7,4942.4-838.2z M5383-840.1c-124.5-21.1-325.7-21.1-325.7,1.9c0,11.5,80.5,19.2,206.9,17.2C5430.9-822.9,5453.9-826.7,5383-840.1z M5498-947.4c0-13.4-17.3-24.9-38.3-24.9c-21.1,0-38.3-7.7-38.3-19.2c0-9.6,17.2-19.2,40.2-19.2c36.4,0,38.3-7.7,28.7-109.2c-13.4-139.8-13.4-164.8,0-291.2c7.7-74.7,3.8-107.3-13.4-120.7c-21.1-13.4-21.1-21.1-1.9-28.7c11.5-3.8,23-19.2,23-32.5c0-44.1-546-67.1-865.9-36.4l-130.3,11.5v130.3v132.2h134.1c92,0,151.3-9.6,182-30.7c57.5-36.4,114.9-21.1,157.1,42.1c63.2,97.7-57.5,218.4-155.2,153.3c-32.6-21.1-90-30.7-183.9-30.7h-134.1v105.4c0,91.9,3.8,105.4,38.3,105.4c21.1,0,38.3,9.6,38.3,19.2c0,11.5-17.2,19.2-38.3,19.2c-21.1,0-38.3,11.5-38.3,24.9c0,17.2,111.1,23,498.1,23S5498-930.1,5498-947.4z M4913.7-1288.4c0-19.2-7.7-38.3-19.2-42.2c-9.6-1.9-19.2,15.3-19.2,42.2c0,26.8,9.6,46,19.2,42.1C4906-1250.1,4913.7-1269.2,4913.7-1288.4z M4794.9-1711.8c82.4-7.7,147.5-21.1,147.5-28.7c0-9.6-90-17.2-199.2-17.2c-153.3,0-203.1,5.7-222.2,28.7c-21.1,24.9-13.4,28.7,51.7,28.7C4614.8-1700.3,4714.4-1706,4794.9-1711.8z M5478.8-1729c-19.2-23-69-28.7-222.2-28.7c-212.6,0-275.9,30.6-88.1,44C5455.8-1696.5,5503.7-1698.4,5478.8-1729z"/><path d="M4731.7,2016.4c0-9.6,17.2-19.2,38.3-19.2s38.3,9.6,38.3,19.2c0,11.5-17.2,19.2-38.3,19.2S4731.7,2027.9,4731.7,2016.4z"/><path d="M4846.6,2016.4c0-9.6,17.2-19.2,38.3-19.2c21.1,0,38.3,9.6,38.3,19.2c0,11.5-17.2,19.2-38.3,19.2C4863.8,2035.5,4846.6,2027.9,4846.6,2016.4z"/><path d="M4961.6,2016.4c0-9.6,17.2-19.2,38.3-19.2c21.1,0,38.3,9.6,38.3,19.2c0,11.5-17.2,19.2-38.3,19.2C4978.8,2035.5,4961.6,2027.9,4961.6,2016.4z"/><path d="M5076.5,2016.4c0-9.6,17.2-19.2,38.3-19.2c21.1,0,38.3,9.6,38.3,19.2c0,11.5-17.3,19.2-38.3,19.2C5093.7,2035.5,5076.5,2027.9,5076.5,2016.4z"/><path d="M5191.4,2016.4c0-9.6,17.2-19.2,38.3-19.2c21.1,0,38.3,9.6,38.3,19.2c0,11.5-17.2,19.2-38.3,19.2C5208.7,2035.5,5191.4,2027.9,5191.4,2016.4z"/><path d="M4501.8,1997.2c0-9.6,17.2-19.2,38.3-19.2c21.1,0,38.3,9.6,38.3,19.2c0,11.5-17.2,19.2-38.3,19.2C4519,2016.4,4501.8,2008.7,4501.8,1997.2z"/><path d="M4632,2003c11.5-3.8,34.5-3.8,47.9,0c11.5,5.8,1.9,9.6-24.9,9.6C4628.2,2012.6,4618.6,2008.7,4632,2003z"/><path d="M5321.7,2003c11.5-3.8,34.5-3.8,47.9,0c11.5,5.8,1.9,9.6-24.9,9.6C5317.9,2012.6,5308.3,2008.7,5321.7,2003z"/><path d="M5421.3,1997.2c0-9.6,17.2-19.2,38.3-19.2c21.1,0,38.3,9.6,38.3,19.2c0,11.5-17.3,19.2-38.3,19.2C5438.6,2016.4,5421.3,2008.7,5421.3,1997.2z"/><path d="M4386.8,1978.1c0-9.6,11.5-19.2,26.8-19.2c15.3,0,34.5,9.6,40.2,19.2c5.7,11.5-5.7,19.2-26.8,19.2C4404,1997.2,4386.8,1989.6,4386.8,1978.1z"/><path d="M5545.9,1978.1c5.7-9.6,24.9-19.2,40.2-19.2s26.8,9.6,26.8,19.2c0,11.5-17.3,19.2-40.2,19.2C5551.6,1997.2,5540.1,1989.6,5545.9,1978.1z"/><path d="M4271.9,1958.9c0-24.9,21.1-24.9,57.5,0c23,15.3,21.1,19.2-13.4,19.2C4291,1978.1,4271.9,1970.4,4271.9,1958.9z"/><path d="M5670.4,1958.9c36.4-24.9,57.5-24.9,57.5,0c0,11.5-19.2,19.2-42.1,19.2C5649.3,1978.1,5647.4,1974.2,5670.4,1958.9z"/><path d="M4156.9,1939.8c0-24.9,21.1-24.9,57.5,0c23,15.3,21.1,19.2-13.4,19.2C4176.1,1958.9,4156.9,1951.3,4156.9,1939.8z"/><path d="M5785.4,1939.8c36.4-24.9,57.5-24.9,57.5,0c0,11.5-19.2,19.2-42.1,19.2C5764.3,1958.9,5762.4,1955.1,5785.4,1939.8z"/><path d="M4042,1920.6c0-9.6,11.5-19.2,26.8-19.2c15.3,0,34.5,9.6,40.2,19.2c5.7,11.5-5.7,19.2-26.8,19.2C4059.2,1939.8,4042,1932.1,4042,1920.6z"/><path d="M5890.7,1920.6c5.8-9.6,24.9-19.2,40.2-19.2s26.8,9.6,26.8,19.2c0,11.5-17.3,19.2-40.2,19.2C5896.5,1939.8,5885,1932.1,5890.7,1920.6z"/><path d="M3936.6,1901.4c-5.7-9.6,5.7-19.2,26.8-19.2c23,0,40.2,9.6,40.2,19.2c0,11.5-11.5,19.2-26.8,19.2C3961.5,1920.6,3942.3,1912.9,3936.6,1901.4z"/><path d="M5996.1,1901.4c0-9.6,17.3-19.2,40.2-19.2c21.1,0,32.6,9.6,26.8,19.2c-5.8,11.5-24.9,19.2-40.2,19.2C6007.6,1920.6,5996.1,1912.9,5996.1,1901.4z"/><path d="M3812.1,1863.1c0-9.6,11.5-19.2,26.8-19.2c15.3,0,34.5,9.6,40.2,19.2c5.7,11.5-5.7,19.2-26.8,19.2C3829.3,1882.3,3812.1,1874.6,3812.1,1863.1z"/><path d="M6120.6,1863.1c5.7-9.6,24.9-19.2,40.2-19.2c15.3,0,26.8,9.6,26.8,19.2c0,11.5-17.2,19.2-40.2,19.2C6126.4,1882.3,6114.9,1874.6,6120.6,1863.1z"/><path d="M3731.6,1847.8c-19.2-3.8-34.5-15.3-34.5-24.9c0-21.1,21.1-21.1,57.5,1.9C3789.1,1845.9,3775.7,1859.3,3731.6,1847.8z"/><path d="M6226,1844c0-13.4,46-38.3,69-38.3c24.9,0,1.9,36.4-30.6,44.1C6243.2,1855.5,6226,1853.5,6226,1844z"/><path d="M3616.7,1809.5c-19.2-3.8-34.5-15.3-34.5-24.9c0-21.1,21.1-21.1,57.5,1.9C3674.1,1807.6,3660.7,1821,3616.7,1809.5z"/><path d="M6340.9,1805.6c0-13.4,46-38.3,69-38.3c24.9,0,1.9,36.4-30.6,44.1C6358.2,1817.1,6340.9,1815.2,6340.9,1805.6z"/><path d="M3476.8,1748.2c-5.7-9.6,1.9-19.2,17.2-19.2c15.3,0,34.5,9.6,40.2,19.2c5.7,11.5-1.9,19.2-17.2,19.2C3501.7,1767.3,3482.5,1759.7,3476.8,1748.2z"/><path d="M6465.5,1748.2c5.7-9.6,24.9-19.2,40.2-19.2c15.3,0,23,9.6,17.2,19.2c-5.7,11.5-24.9,19.2-40.2,19.2S6459.7,1759.7,6465.5,1748.2z"/><path d="M3371.4,1709.9c-15.3-9.6-23-23-17.2-28.7c15.3-15.3,74.7,9.6,74.7,30.7C3428.9,1732.9,3407.8,1732.9,3371.4,1709.9z"/><path d="M6570.8,1711.8c0-21.1,59.4-46,74.7-30.7c5.7,5.7-1.9,19.2-17.3,28.7C6591.9,1732.9,6570.8,1732.9,6570.8,1711.8z"/><path d="M3256.5,1652.4c-15.3-9.6-23-23-17.2-28.7c15.3-15.3,74.7,9.6,74.7,30.7S3292.9,1675.4,3256.5,1652.4z"/><path d="M6685.8,1654.3c0-21.1,59.4-46,74.7-30.7c5.8,5.7-1.9,19.2-17.2,28.7C6706.8,1675.4,6685.8,1675.4,6685.8,1654.3z"/><path d="M3139.6,1583.4c-23-26.8-21.1-30.7,9.6-24.9c21.1,3.8,40.2,19.2,46,32.6C3204.8,1623.6,3170.3,1619.8,3139.6,1583.4z"/><path d="M6804.6,1591.1c5.7-13.4,24.9-28.7,46-32.6c30.7-5.8,32.6-1.9,9.6,24.9C6829.5,1619.8,6795,1623.6,6804.6,1591.1z"/><path d="M3036.2,1516.4c-21.1-32.6,0-38.3,40.2-7.7c32.6,24.9,32.6,26.8,3.8,28.7C3063,1537.4,3041.9,1527.9,3036.2,1516.4z"/><path d="M6915.7,1520.2c0-21.1,59.4-46,74.7-30.7c5.7,5.7-1.9,19.2-17.2,28.7C6936.7,1541.3,6915.7,1541.3,6915.7,1520.2z"/><path d="M2938.5,1453.1c-19.2-15.3-28.7-34.5-21.1-42.1c7.7-7.7,28.7,0,46,17.2C3005.5,1468.5,2986.4,1487.6,2938.5,1453.1z"/><path d="M4760.4,1460.8c-36.4-15.3-36.4-17.2,5.7-17.2c23-1.9,42.1,7.7,42.1,17.2c0,11.5-1.9,19.2-3.8,17.2C4800.6,1478,4781.5,1470.4,4760.4,1460.8z"/><path d="M4846.6,1460.8c0-9.6,17.2-19.2,38.3-19.2c21.1,0,38.3,9.6,38.3,19.2c0,11.5-17.2,19.2-38.3,19.2C4863.8,1480,4846.6,1472.3,4846.6,1460.8z"/><path d="M4961.6,1460.8c0-9.6,17.2-19.2,38.3-19.2c21.1,0,38.3,9.6,38.3,19.2c0,11.5-17.2,19.2-38.3,19.2C4978.8,1480,4961.6,1472.3,4961.6,1460.8z"/><path d="M5076.5,1460.8c0-9.6,17.2-19.2,38.3-19.2c21.1,0,38.3,9.6,38.3,19.2c0,11.5-17.3,19.2-38.3,19.2C5093.7,1480,5076.5,1472.3,5076.5,1460.8z"/><path d="M5191.4,1458.9c0-9.6,17.2-17.2,38.3-17.2c21.1,0,38.3,3.8,38.3,7.7c0,3.8-17.2,11.5-38.3,17.2C5208.7,1472.3,5191.4,1468.5,5191.4,1458.9z"/><path d="M4616.7,1441.6c0-9.6,17.2-19.2,38.3-19.2c21.1,0,38.3,9.6,38.3,19.2c0,11.5-17.2,19.2-38.3,19.2C4633.9,1460.8,4616.7,1453.1,4616.7,1441.6z"/><path d="M5306.4,1441.6c0-9.6,17.2-19.2,38.3-19.2c21.1,0,38.3,9.6,38.3,19.2c0,11.5-17.2,19.2-38.3,19.2C5323.6,1460.8,5306.4,1453.1,5306.4,1441.6z"/><path d="M7030.6,1441.6c0-9.6,17.2-26.8,38.3-38.3c42.2-23,51.7-1.9,15.3,34.5C7057.5,1464.6,7030.6,1468.5,7030.6,1441.6z"/><path d="M4501.8,1422.5c0-9.6,11.5-19.2,26.8-19.2c15.3,0,34.5,9.6,40.2,19.2c5.7,11.5-5.7,19.2-26.8,19.2C4519,1441.6,4501.8,1434,4501.8,1422.5z"/><path d="M5430.9,1422.5c5.7-9.6,24.9-19.2,40.2-19.2c15.3,0,26.8,9.6,26.8,19.2c0,11.5-17.3,19.2-40.2,19.2C5436.7,1441.6,5425.2,1434,5430.9,1422.5z"/><path d="M4386.8,1403.3c0-9.6,11.5-19.2,26.8-19.2c15.3,0,34.5,9.6,40.2,19.2c5.7,11.5-5.7,19.2-26.8,19.2C4404,1422.5,4386.8,1414.8,4386.8,1403.3z"/><path d="M5545.9,1403.3c5.7-9.6,24.9-19.2,40.2-19.2s26.8,9.6,26.8,19.2c0,11.5-17.3,19.2-40.2,19.2C5551.6,1422.5,5540.1,1414.8,5545.9,1403.3z"/><path d="M4271.9,1384.2c0-9.6,17.2-19.2,38.3-19.2c21.1,0,38.3,9.6,38.3,19.2c0,11.5-17.2,19.2-38.3,19.2C4289.1,1403.3,4271.9,1395.7,4271.9,1384.2z"/><path d="M5651.2,1384.2c0-9.6,17.2-19.2,38.3-19.2c21.1,0,38.3,9.6,38.3,19.2c0,11.5-17.2,19.2-38.3,19.2C5668.5,1403.3,5651.2,1395.7,5651.2,1384.2z"/><path d="M2825.4,1363.1c-7.7-11.5-9.6-24.9-3.8-30.7c13.4-13.4,51.7,11.5,51.7,34.5C2873.3,1389.9,2840.7,1389.9,2825.4,1363.1z"/><path d="M4181.8,1370.8c-40.2-15.3-28.7-42.1,13.4-30.6c21.1,5.7,38.3,17.2,38.3,26.8C4233.5,1386.1,4218.2,1386.1,4181.8,1370.8z"/><path d="M5766.2,1366.9c0-9.6,17.2-21.1,38.3-26.8c46-11.5,51.7,15.3,7.7,32.6C5771.9,1388,5766.2,1388,5766.2,1366.9z"/><path d="M7145.6,1345.9c0-9.6,17.2-26.8,38.3-38.3c42.2-23,51.7-1.9,15.3,34.5C7172.4,1368.8,7145.6,1372.7,7145.6,1345.9z"/><path d="M4051.5,1326.7c-5.7-9.6,5.7-19.2,26.8-19.2c23,0,40.2,9.6,40.2,19.2c0,11.5-11.5,19.2-26.8,19.2C4076.4,1345.9,4057.3,1338.2,4051.5,1326.7z"/><path d="M5881.1,1326.7c0-9.6,17.2-19.2,40.2-19.2c21.1,0,32.6,9.6,26.8,19.2c-5.7,11.5-24.9,19.2-40.2,19.2C5892.6,1345.9,5881.1,1338.2,5881.1,1326.7z"/><path d="M2729.6,1269.2c-19.2-21.1-24.9-38.3-15.3-38.3c24.9,0,72.8,55.6,59.4,67.1C2767.9,1303.7,2748.8,1290.3,2729.6,1269.2z"/><path d="M3936.6,1288.4c-5.7-9.6,5.7-19.2,26.8-19.2c23,0,40.2,9.6,40.2,19.2c0,11.5-11.5,19.2-26.8,19.2C3961.5,1307.5,3942.3,1299.9,3936.6,1288.4z"/><path d="M6005.7,1288.4c5.7-9.6,24.9-19.2,40.2-19.2c15.3,0,23,9.6,17.3,19.2c-5.8,11.5-24.9,19.2-40.2,19.2C6007.6,1307.5,5999.9,1299.9,6005.7,1288.4z"/><path d="M3837,1255.8c-40.2-15.3-28.7-42.1,13.4-30.6c21.1,5.7,38.3,17.2,38.3,26.8C3888.7,1271.1,3873.4,1271.1,3837,1255.8z"/><path d="M6111,1253.9c0-9.6,17.2-23,40.2-28.7c24.9-5.8,36.4-1.9,30.7,11.5C6172.3,1265.4,6111,1278.8,6111,1253.9z"/><path d="M7264.4,1230.9c24.9-38.3,53.6-51.7,53.6-23c0,19.2-42.2,61.3-61.3,61.3C7247.1,1269.2,7250.9,1252,7264.4,1230.9z"/><path d="M3731.6,1215.6c-19.2-3.8-34.5-15.3-34.5-24.9c0-21.1,21.1-21.1,57.5,1.9C3789.1,1213.7,3775.7,1227.1,3731.6,1215.6z"/><path d="M6226,1211.7c0-13.4,46-38.3,69-38.3c24.9,0,1.9,36.4-30.6,44.1C6243.2,1223.2,6226,1221.3,6226,1211.7z"/><path d="M2633.8,1171.5c-7.7-11.5-9.6-24.9-3.8-30.7c13.4-13.4,51.7,11.5,51.7,34.5S2649.2,1198.3,2633.8,1171.5z"/><path d="M3601.3,1154.3c-15.3-9.6-23-23-17.2-28.7c15.3-15.3,74.7,9.6,74.7,30.7C3658.8,1177.3,3637.7,1177.3,3601.3,1154.3z"/><path d="M6340.9,1156.2c0-21.1,59.4-46,74.7-30.7c5.7,5.7-1.9,19.2-17.2,28.7C6362,1177.3,6340.9,1177.3,6340.9,1156.2z"/><path d="M7360.1,1116c24.9-38.3,53.6-51.7,53.6-23c0,19.2-42.2,61.3-61.3,61.3C7342.9,1154.3,7346.7,1137,7360.1,1116z"/><path d="M3486.4,1096.8c-15.3-9.6-23-23-17.2-28.7c15.3-15.3,74.7,9.6,74.7,30.7S3522.8,1119.8,3486.4,1096.8z"/><path d="M6455.9,1098.7c0-21.1,59.4-46,74.7-30.7c5.7,5.7-1.9,19.2-17.2,28.7C6476.9,1119.8,6455.9,1119.8,6455.9,1098.7z"/><path d="M2559.1,1066.1c-17.2-42.1,5.7-61.3,26.8-26.8c23,36.4,23,57.5,1.9,57.5C2578.3,1096.8,2564.9,1083.4,2559.1,1066.1z"/><path d="M3379.1,1031.7c-19.2-15.3-30.7-32.6-24.9-38.3c5.7-5.8,26.8,1.9,47.9,15.3c19.2,15.3,30.7,32.6,24.9,38.3C3421.2,1052.7,3400.2,1045.1,3379.1,1031.7z"/><path d="M6570.8,1039.3c0-23,53.6-47.9,69-32.6c5.8,5.8-7.7,19.2-28.7,32.6C6582.3,1052.7,6570.8,1052.7,6570.8,1039.3z"/><path d="M7432.9,1029.7c0-34.5,36.4-76.6,49.8-61.3c7.7,7.7,0,28.7-17.2,46C7448.3,1033.6,7432.9,1039.3,7432.9,1029.7z"/><path d="M2490.2,943.5c-13.4-24.9-13.4-38.3-1.9-38.3c11.5,0,28.7,17.2,40.2,38.3c13.4,24.9,13.4,38.3,1.9,38.3C2518.9,981.9,2501.7,964.6,2490.2,943.5z"/><path d="M3256.5,953.1c-26.8-30.7-19.2-34.5,26.8-17.2c17.2,5.7,30.7,19.2,30.7,28.7C3314,991.4,3283.3,985.7,3256.5,953.1z"/><path d="M6685.8,964.6c0-21.1,59.4-46,74.7-30.7c5.8,5.7-1.9,19.2-17.2,28.7C6706.8,985.7,6685.8,985.7,6685.8,964.6z"/><path d="M3139.6,874.6c-23-26.8-21.1-30.7,9.6-24.9c21.1,3.8,40.2,19.2,46,32.6C3204.8,914.8,3170.3,911,3139.6,874.6z"/><path d="M6800.7,889.9c0-7.7,17.3-24.9,38.3-38.3c42.1-24.9,51.7-5.8,15.3,30.6C6827.6,909.1,6800.7,912.9,6800.7,889.9z"/><path d="M3045.7,799.8c-26.8-30.7-19.2-34.5,26.8-17.2c17.2,5.7,30.7,19.2,30.7,28.7C3103.2,838.2,3072.6,832.4,3045.7,799.8z"/><path d="M6915.7,813.3c0-19.2,40.2-61.3,61.3-61.3c30.6,0,15.3,36.4-23,57.5C6932.9,820.9,6915.7,822.8,6915.7,813.3z"/><path d="M2930.8,704.1c-38.3-46-11.5-53.6,28.7-9.6c19.2,21.1,24.9,38.3,15.3,38.3C2963.4,732.8,2944.2,719.4,2930.8,704.1z"/><path d="M7030.6,719.4c0-24.9,55.6-72.8,67.1-59.4c5.7,5.7-7.7,24.9-28.7,44.1C7047.9,723.2,7030.6,729,7030.6,719.4z"/><path d="M2815.8,608.3c-40.2-47.9-1.9-59.4,44.1-13.4c32.6,34.5,34.5,42.2,9.6,42.2C2854.2,637,2829.3,623.6,2815.8,608.3z"/><path d="M7145.6,600.6c0-24.9,55.6-67.1,70.9-53.6c13.4,15.3-28.7,70.9-53.6,70.9C7153.2,617.8,7145.6,610.2,7145.6,600.6z"/><path d="M2739.2,512.5c-13.4-17.2-21.1-34.5-15.3-38.3c5.7-5.7,21.1,1.9,34.5,19.2c13.4,17.2,21.1,34.5,15.3,38.3C2767.9,537.4,2752.6,529.7,2739.2,512.5z"/><path d="M7264.4,464.6c24.9-38.3,53.6-51.7,53.6-23c0,19.2-42.2,61.3-61.3,61.3C7247.1,502.9,7250.9,485.7,7264.4,464.6z"/><path d="M2643.4,397.5c-13.4-17.2-21.1-34.5-15.3-38.3c5.7-5.7,21.1,1.9,34.5,19.2c13.4,17.2,21.1,34.5,15.3,38.3C2672.2,422.4,2656.8,414.8,2643.4,397.5z"/><path d="M7356.3,349.6c21.1-38.3,57.5-53.6,57.5-23c0,21.1-42.2,61.3-61.3,61.3C7342.9,387.9,7344.8,370.7,7356.3,349.6z"/><path d="M2561,297.9c-7.7-5.7-13.4-24.9-13.4-40.2c0-23,5.7-23,28.7-3.8c15.3,13.4,28.7,30.7,28.7,40.2C2605.1,315.2,2578.3,317.1,2561,297.9z"/><path d="M2451.8-68c0-21.1,42.2-61.3,61.3-61.3c9.6,0,7.7,17.2-3.8,38.3C2488.2-52.7,2451.8-37.4,2451.8-68z"/><path d="M2547.6-184.9c0-24.9,55.6-67.1,70.9-53.7c13.4,15.3-28.7,70.9-53.6,70.9C2555.3-167.6,2547.6-175.3,2547.6-184.9z"/><path d="M2662.6-301.7c0-9.6,17.2-26.8,38.3-38.3c42.1-23,51.7-1.9,15.3,34.5C2689.4-278.8,2662.6-274.9,2662.6-301.7z"/><path d="M2777.5-395.6c0-9.6,13.4-23,30.7-28.7c46-17.2,53.6-13.4,26.8,17.2C2808.2-374.6,2777.5-368.8,2777.5-395.6z"/><path d="M2471-437.8c13.4-21.1,26.8-34.5,32.6-28.7c15.3,15.3-9.6,69-32.6,69C2457.6-397.5,2457.6-409,2471-437.8z"/><path d="M2892.5-472.2c0-9.6,13.4-23,30.7-28.7c46-17.2,53.6-13.4,26.8,17.2C2923.1-451.2,2892.5-445.4,2892.5-472.2z"/><path d="M2729.6-522.1c-57.5-55.6-59.4-86.2-7.7-151.4c49.8-63.2,101.5-63.2,160.9-1.9c61.3,59.4,61.3,111.1-1.9,160.9C2815.8-462.7,2785.2-464.6,2729.6-522.1z M2850.3-594.9c7.7-38.3-47.9-65.1-76.6-36.4c-28.7,28.7-1.9,84.3,36.4,76.6C2829.3-558.5,2846.5-575.7,2850.3-594.9z"/><path d="M2532.3-550.8c28.7-46,63.2-51.7,46-7.7c-5.8,17.2-11.5,34.5-11.5,38.3c0,3.8-13.4,7.7-28.7,7.7C2513.1-512.5,2513.1-518.2,2532.3-550.8z"/><path d="M3032.3-564.2c17.3-17.2,38.3-24.9,46-17.2c7.7,7.7,1.9,21.1-13.4,30.7C3017-520.1,2997.8-529.7,3032.3-564.2z"/><path d="M3122.4-606.4c0-21.1,59.4-46,74.7-30.6c5.8,5.7-1.9,19.2-17.2,28.7C3143.5-585.3,3122.4-585.3,3122.4-606.4z"/><path d="M2605.1-642.8c0-21.1,42.1-61.3,61.3-61.3c9.6,0,7.7,17.2-3.8,38.3C2641.5-627.4,2605.1-612.1,2605.1-642.8z"/><path d="M3237.3-663.8c0-21.1,59.4-46,74.7-30.6c5.8,5.7-1.9,19.2-17.2,28.7C3258.4-642.8,3237.3-642.8,3237.3-663.8z"/><path d="M3361.9-723.2c5.7-9.6,24.9-19.2,40.2-19.2c15.3,0,23,9.6,17.2,19.2c-5.7,11.5-24.9,19.2-40.2,19.2C3363.8-704.1,3356.1-711.7,3361.9-723.2z"/><path d="M2700.9-759.6c0-24.9,55.6-67.1,70.9-53.7c13.4,15.3-28.7,70.9-53.6,70.9C2708.6-742.4,2700.9-750,2700.9-759.6z"/><path d="M3467.2-761.5c0-9.6,17.2-19.2,40.2-19.2c21.1,0,32.6,9.6,26.8,19.2c-5.7,11.5-24.9,19.2-40.2,19.2C3478.7-742.4,3467.2-750,3467.2-761.5z"/><path d="M3582.2-799.8c0-9.6,17.2-19.2,40.2-19.2c21.1,0,32.6,9.6,26.8,19.2c-5.7,11.5-24.9,19.2-40.2,19.2C3593.7-780.7,3582.2-788.4,3582.2-799.8z"/><path d="M3697.1-838.2c0-9.6,17.2-19.2,40.2-19.2c21.1,0,32.6,9.6,26.8,19.2c-5.7,11.5-24.9,19.2-40.2,19.2C3708.6-819,3697.1-826.7,3697.1-838.2z"/><path d="M3812.1-857.3c0-13.4,46-38.3,69-38.3c24.9,0,1.9,36.4-30.7,44C3829.3-845.8,3812.1-847.7,3812.1-857.3z"/><path d="M2844.6-895.6c19.2-21.1,38.3-34.5,44.1-28.7c13.4,11.5-34.5,67.1-59.4,67.1C2819.7-857.3,2825.4-874.6,2844.6-895.6z"/><path d="M3375.3-920.6c-23-24.9-42.1-59.4-42.1-78.5c0-40.2,84.3-126.4,124.5-126.4c17.2,0,51.7,21.1,76.6,47.9c26.8,24.9,47.9,59.4,47.9,76.6c0,42.1-86.2,124.5-130.3,124.5C3432.7-876.5,3398.3-895.6,3375.3-920.6z M3501.7-997.2c7.7-38.3-47.9-65.1-76.6-36.4c-28.7,28.7-1.9,84.3,36.4,76.6C3480.6-960.8,3497.9-978,3501.7-997.2z"/><path d="M3927-895.6c0-9.6,17.2-19.2,40.2-19.2c21.1,0,32.6,9.6,26.8,19.2c-5.7,11.5-24.9,19.2-40.2,19.2C3938.5-876.5,3927-884.2,3927-895.6z"/><path d="M4042-914.8c0-9.6,19.2-19.2,44.1-19.2c34.5,0,36.4,3.8,13.4,19.2C4063-889.9,4042-889.9,4042-914.8z"/><path d="M4156.9-934c0-7.7,17.2-19.2,38.3-24.9c21.1-5.7,38.3-3.8,38.3,5.8c0,7.7-17.2,19.2-38.3,24.9C4174.1-922.5,4156.9-924.4,4156.9-934z"/><path d="M2955.7-985.7c17.2-17.2,38.3-24.9,46-17.2c7.7,7.6,1.9,21.1-13.4,30.7C2940.4-941.6,2921.2-951.2,2955.7-985.7z"/><path d="M3045.7-1047c0-19.2,46-40.2,82.4-40.2c13.4,0,5.8,13.4-13.4,28.7C3072.6-1025.9,3045.7-1022.1,3045.7-1047z"/><path d="M4089.9-1135.1c-57.5-55.6-59.4-86.2-7.7-151.3c49.8-63.2,101.5-63.2,160.9-1.9c61.3,59.4,61.3,111.1-1.9,160.9C4176.1-1075.7,4145.4-1077.6,4089.9-1135.1z M4210.6-1207.9c7.7-38.3-47.9-65.1-76.6-36.4c-28.7,28.7-1.9,84.3,36.4,76.6C4189.5-1171.5,4206.7-1188.8,4210.6-1207.9z"/><path d="M3187.5-1135.1c40.2-30.7,61.3-24.9,40.2,7.7c-5.7,11.5-26.8,21.1-44.1,21.1C3154.9-1108.3,3154.9-1110.2,3187.5-1135.1z"/><path d="M3275.6-1181.1c0-21.1,59.4-46,74.7-30.6c5.8,5.7-1.9,19.2-17.2,28.7C3296.7-1160,3275.6-1160,3275.6-1181.1z"/><path d="M3390.6-1238.6c0-21.1,59.4-46,74.7-30.6c5.8,5.7-1.9,19.2-17.2,28.7C3411.7-1217.5,3390.6-1217.5,3390.6-1238.6z"/><path d="M3515.1-1298c5.7-9.6,24.9-19.2,40.2-19.2c15.3,0,23,9.6,17.2,19.2c-5.7,11.5-24.9,19.2-40.2,19.2C3517-1278.8,3509.4-1286.5,3515.1-1298z"/><path d="M3620.5-1334.4c0-9.6,17.2-21.1,38.3-26.8c46-11.5,51.7,15.3,7.7,32.6C3626.2-1313.3,3620.5-1313.3,3620.5-1334.4z"/><path d="M3735.4-1372.7c0-9.6,17.2-21.1,38.3-26.8c46-11.5,51.7,15.3,7.7,32.6C3741.2-1351.6,3735.4-1351.6,3735.4-1372.7z"/><path d="M3850.4-1412.9c0-9.6,17.2-19.2,40.2-19.2c21.1,0,32.6,9.6,26.8,19.2c-5.7,11.5-24.9,19.2-40.2,19.2C3861.9-1393.7,3850.4-1401.4,3850.4-1412.9z"/><path d="M3974.9-1451.2c5.7-9.6,24.9-19.2,40.2-19.2c15.3,0,26.8,9.6,26.8,19.2c0,11.5-17.2,19.2-40.2,19.2C3980.7-1432.1,3969.2-1439.7,3974.9-1451.2z"/><path d="M4080.3-1470.4c0-9.6,17.2-19.2,40.2-19.2c21.1,0,32.6,9.6,26.8,19.2c-5.7,11.5-24.9,19.2-40.2,19.2C4091.8-1451.2,4080.3-1458.9,4080.3-1470.4z"/><path d="M4195.2-1489.5c0-7.7,17.2-19.2,38.3-24.9c21.1-5.8,38.3-3.8,38.3,5.8c0,7.6-17.2,19.2-38.3,24.9C4212.5-1478,4195.2-1480,4195.2-1489.5z"/><path d="M7270.1-493.3c-5.7-9.6,5.7-19.2,26.8-19.2c23,0,40.2,9.6,40.2,19.2c0,11.5-11.5,19.2-26.8,19.2C7295-474.2,7275.8-481.8,7270.1-493.3z"/><path d="M7375.5-495.2c0-9.6,17.2-17.2,38.3-17.2c21.1,0,38.3,3.8,38.3,7.6s-17.2,11.5-38.3,17.2C7392.7-481.8,7375.5-485.7,7375.5-495.2z"/><path d="M7145.6-512.5c0-9.6,17.2-19.2,38.3-19.2s38.3,9.6,38.3,19.2c0,11.5-17.3,19.2-38.3,19.2S7145.6-501,7145.6-512.5z"/><path d="M7490.4-510.6c0-9.6,17.2-21.1,38.3-26.8c46-11.5,51.7,15.3,7.7,32.6C7496.2-489.5,7490.4-489.5,7490.4-510.6z"/><path d="M7030.6-531.6c0-9.6,17.2-19.2,38.3-19.2c21.1,0,38.3,9.6,38.3,19.2c0,11.5-17.2,19.2-38.3,19.2C7047.9-512.5,7030.6-520.1,7030.6-531.6z"/><path d="M6934.8-550.8c-15.3-9.6-23-23-17.2-28.7c15.3-15.3,74.7,9.6,74.7,30.6C6992.3-527.8,6971.2-527.8,6934.8-550.8z"/><path d="M7609.2-577.6c1.9-28.7,11.5-49.8,19.2-49.8c23,0,19.2,72.8-3.8,86.2C7613-533.6,7607.3-550.8,7609.2-577.6z"/><path d="M6819.9-589.1c-15.3-9.6-23-23-17.2-28.7c15.3-15.3,74.7,9.6,74.7,30.6S6856.3-566.1,6819.9-589.1z"/><path d="M6695.4-646.6c-5.8-9.6,1.9-19.2,17.2-19.2c15.3,0,34.5,9.6,40.2,19.2c5.7,11.5-1.9,19.2-17.2,19.2C6720.3-627.4,6701.1-635.1,6695.4-646.6z"/><path d="M6605.3-681.1c-19.2-3.8-34.5-15.3-34.5-24.9c0-21.1,21.1-21.1,57.5,1.9C6662.8-683,6649.4-669.6,6605.3-681.1z"/><path d="M7538.3-686.8c-7.7-11.5-9.6-24.9-3.8-30.7c13.4-13.4,51.7,11.5,51.7,34.5C7586.2-660,7553.6-660,7538.3-686.8z"/><path d="M6469.3-736.7c-24.9-24.9-13.4-40.2,24.9-30.6c21.1,5.8,38.3,17.3,38.3,26.8C6532.5-721.3,6486.5-717.5,6469.3-736.7z"/><path d="M7432.9-771.1c-26.8-30.7-19.2-34.5,26.8-17.2c17.2,5.7,30.6,19.2,30.6,28.7C7490.4-732.8,7459.8-738.6,7432.9-771.1z"/><path d="M6360.1-780.7c-15.3-9.6-23-23-17.2-28.7c15.3-15.3,74.7,9.6,74.7,30.6S6396.5-757.7,6360.1-780.7z"/><path d="M6250.9-813.3c-40.2-15.3-28.7-42.1,13.4-30.6c21.1,5.8,38.3,17.3,38.3,26.8C6302.6-797.9,6287.3-797.9,6250.9-813.3z"/><path d="M7321.8-842c-36.4-36.4-26.8-57.5,15.3-34.5c21.1,11.5,38.3,28.7,38.3,38.3C7375.5-811.3,7348.6-815.2,7321.8-842z"/><path d="M6120.6-857.3c-5.7-9.6,5.7-19.2,26.8-19.2c23,0,40.2,9.6,40.2,19.2c0,11.5-11.5,19.2-26.8,19.2C6145.5-838.2,6126.4-845.8,6120.6-857.3z"/><path d="M5996.1-895.6c0-9.6,11.5-19.2,26.8-19.2c15.3,0,34.5,9.6,40.2,19.2c5.7,11.5-5.8,19.2-26.8,19.2C6013.3-876.5,5996.1-884.2,5996.1-895.6z"/><path d="M5890.7-914.8c-5.7-9.6,5.8-19.2,26.8-19.2c23,0,40.2,9.6,40.2,19.2c0,11.5-11.5,19.2-26.8,19.2S5896.5-903.3,5890.7-914.8z"/><path d="M7203-924.4c-26.8-30.7-19.2-34.5,26.8-17.2c17.2,5.7,30.6,19.2,30.6,28.7C7260.5-886.1,7229.9-891.8,7203-924.4z"/><path d="M5775.8-934c-5.7-9.6,5.7-19.2,26.8-19.2c23,0,40.2,9.6,40.2,19.2c0,11.5-11.5,19.2-26.8,19.2S5781.5-922.5,5775.8-934z"/><path d="M6216.4-1020.2c-61.3-59.4-57.5-116.9,13.4-168.6c44.1-32.6,59.4-36.4,101.5-17.2c26.8,11.5,59.4,44.1,70.9,70.9c19.2,42.1,15.3,57.5-17.3,101.5C6333.3-962.7,6275.8-958.9,6216.4-1020.2z M6337.1-1093c7.7-38.3-47.9-65.1-76.6-36.4c-28.7,28.7-1.9,84.3,36.4,76.6C6316-1056.6,6333.3-1073.8,6337.1-1093z"/><path d="M7078.5-993.3c-23-36.4,9.6-44.1,42.2-11.5c30.6,30.7,30.6,32.6,1.9,32.6C7105.4-972.3,7084.3-981.8,7078.5-993.3z"/><path d="M6961.7-1058.5c-19.2-15.3-26.8-28.7-13.4-28.7c36.4,0,82.4,21.1,82.4,40.2C7030.6-1022.1,7003.8-1025.9,6961.7-1058.5z"/><path d="M6848.6-1125.5c-5.7-9.6,1.9-19.2,17.2-19.2c15.3,0,34.5,9.6,40.2,19.2c5.7,11.5-1.9,19.2-17.2,19.2C6873.5-1106.4,6854.4-1114,6848.6-1125.5z"/><path d="M6750.9-1171.5c-19.2-15.3-30.7-32.6-24.9-38.3c5.8-5.8,26.8,1.9,47.9,15.3c19.2,15.3,30.7,32.6,24.9,38.3C6793.1-1150.4,6772-1158.1,6750.9-1171.5z"/><path d="M6618.7-1242.4c-21.1-32.6,0-38.3,40.2-7.6c32.6,24.9,32.6,26.8,3.8,28.7C6645.6-1221.3,6624.5-1230.9,6618.7-1242.4z"/><path d="M6513.4-1278.8c-15.3-9.6-23-23-17.3-28.7c15.3-15.3,74.7,9.6,74.7,30.6C6570.8-1255.8,6549.8-1255.8,6513.4-1278.8z"/><path d="M6379.2-1336.3c0-9.6,11.5-19.2,26.8-19.2c15.3,0,34.5,9.6,40.2,19.2c5.7,11.5-5.7,19.2-26.8,19.2C6396.5-1317.1,6379.2-1324.8,6379.2-1336.3z"/><path d="M6264.3-1374.6c0-9.6,11.5-19.2,26.8-19.2c15.3,0,34.5,9.6,40.2,19.2c5.7,11.5-5.8,19.2-26.8,19.2C6281.6-1355.4,6264.3-1363.1,6264.3-1374.6z"/><path d="M6149.4-1412.9c0-9.6,11.5-19.2,26.8-19.2c15.3,0,34.5,9.6,40.2,19.2c5.7,11.5-5.7,19.2-26.8,19.2C6166.6-1393.7,6149.4-1401.4,6149.4-1412.9z"/><path d="M6059.3-1426.3c-40.2-15.3-28.7-42.1,13.4-30.6c21.1,5.8,38.3,17.2,38.3,26.8C6111-1411,6095.7-1411,6059.3-1426.3z"/><path d="M5919.5-1470.4c0-9.6,11.5-19.2,26.8-19.2c15.3,0,34.5,9.6,40.2,19.2c5.8,11.5-5.7,19.2-26.8,19.2C5936.7-1451.2,5919.5-1458.9,5919.5-1470.4z"/><path d="M5804.5-1489.5c0-9.6,17.2-19.2,38.3-19.2c21.1,0,38.3,9.6,38.3,19.2c0,11.5-17.3,19.2-38.3,19.2C5821.7-1470.4,5804.5-1478,5804.5-1489.5z"/><path d="M5689.6-1508.7c0-9.6,17.2-19.2,38.3-19.2c21.1,0,38.3,9.6,38.3,19.2c0,11.5-17.3,19.2-38.3,19.2C5706.8-1489.5,5689.6-1497.2,5689.6-1508.7z"/><path d="M4616.7-991.4c0-9.6,19.2-19.2,44.1-19.2c34.5,0,36.4,3.8,13.4,19.2C4637.8-966.5,4616.7-966.5,4616.7-991.4z"/><path d="M5316-991.4c-5.7-9.6,5.7-19.2,26.8-19.2c23,0,40.2,9.6,40.2,19.2c0,11.5-11.5,19.2-26.8,19.2S5321.7-979.9,5316-991.4z"/><path d="M4731.7-1010.6c0-9.6,17.2-19.2,38.3-19.2s38.3,9.6,38.3,19.2c0,11.5-17.2,19.2-38.3,19.2S4731.7-999.1,4731.7-1010.6z"/><path d="M4846.6-1010.6c0-9.6,17.2-19.2,38.3-19.2c21.1,0,38.3,9.6,38.3,19.2c0,11.5-17.2,19.2-38.3,19.2C4863.8-991.4,4846.6-999.1,4846.6-1010.6z"/><path d="M4961.6-1010.6c0-9.6,17.2-19.2,38.3-19.2c21.1,0,38.3,9.6,38.3,19.2c0,11.5-17.2,19.2-38.3,19.2C4978.8-991.4,4961.6-999.1,4961.6-1010.6z"/><path d="M5076.5-1010.6c0-9.6,17.2-19.2,38.3-19.2c21.1,0,38.3,9.6,38.3,19.2c0,11.5-17.3,19.2-38.3,19.2C5093.7-991.4,5076.5-999.1,5076.5-1010.6z"/><path d="M5191.4-1010.6c0-9.6,11.5-19.2,26.8-19.2s34.5,9.6,40.2,19.2c5.8,11.5-5.7,19.2-26.8,19.2C5208.7-991.4,5191.4-999.1,5191.4-1010.6z"/><path d="M4540.1-1547c0-9.6,17.2-19.2,38.3-19.2c21.1,0,38.3,9.6,38.3,19.2c0,11.5-17.2,19.2-38.3,19.2C4557.3-1527.9,4540.1-1535.5,4540.1-1547z"/><path d="M5354.3-1547c-5.7-9.6,5.8-19.2,26.8-19.2c23,0,40.2,9.6,40.2,19.2c0,11.5-11.5,19.2-26.8,19.2S5360-1535.5,5354.3-1547z"/><path d="M4655-1554.7c0-3.8,17.2-11.5,38.3-17.3c21.1-5.7,38.3-1.9,38.3,7.7s-17.2,17.2-38.3,17.2S4655-1550.9,4655-1554.7z"/><path d="M4770-1566.2c0-9.6,17.2-19.2,38.3-19.2c21.1,0,38.3,9.6,38.3,19.2c0,11.5-17.2,19.2-38.3,19.2C4787.2-1547,4770-1554.7,4770-1566.2z"/><path d="M4884.9-1566.2c0-9.6,17.2-19.2,38.3-19.2c21.1,0,38.3,9.6,38.3,19.2c0,11.5-17.2,19.2-38.3,19.2C4902.2-1547,4884.9-1554.7,4884.9-1566.2z"/><path d="M4999.9-1566.2c0-9.6,17.2-19.2,38.3-19.2c21.1,0,38.3,9.6,38.3,19.2c0,11.5-17.2,19.2-38.3,19.2C5017.1-1547,4999.9-1554.7,4999.9-1566.2z"/><path d="M5114.8-1566.2c0-9.6,17.2-19.2,38.3-19.2c21.1,0,38.3,9.6,38.3,19.2c0,11.5-17.2,19.2-38.3,19.2C5132-1547,5114.8-1554.7,5114.8-1566.2z"/><path d="M5229.8-1566.2c0-9.6,17.2-19.2,38.3-19.2c21.1,0,38.3,9.6,38.3,19.2c0,11.5-17.2,19.2-38.3,19.2C5247-1547,5229.8-1554.7,5229.8-1566.2z"/></g></g>
</svg>