<?xml version="1.0" encoding="utf-8"?>
<!-- Svg Vector Icons : http://www.onlinewebfonts.com/icon -->
<!DOCTYPE svg PUBLIC "-//W3C//DTD SVG 1.1//EN" "http://www.w3.org/Graphics/SVG/1.1/DTD/svg11.dtd">
<svg version="1.1" xmlns="http://www.w3.org/2000/svg" xmlns:xlink="http://www.w3.org/1999/xlink" x="0px" y="0px" viewBox="0 0 1000 1000" enable-background="new 0 0 1000 1000" xml:space="preserve">
<metadata> Svg Vector Icons : http://www.onlinewebfonts.com/icon </metadata>
<g><g transform="translate(0.000000,512.000000) scale(0.100000,-0.100000)"><path d="M4563.1,5003.1c-252.9-23-509.6-69-800.8-141.8c-335.3-86.2-570.9-174.3-917.7-344.8c-536.4-262.5-862.1-496.2-1302.8-938.7c-442.6-440.6-676.3-766.3-938.7-1302.7C304.2,1667.7,160.5,1125.5,110.7,430.1c-46-641.8,57.5-1377.5,281.6-1988.6c101.5-279.7,350.6-772.1,515.4-1019.2c641.8-965.6,1626.5-1693.6,2716.6-2005.8c1557.5-450.2,3193.7-120.7,4460,896.6c396.6,318,833.4,816.2,1097.8,1249.1c883.2,1452.2,956,3245.4,193.5,4762.7c-373.6,745.2-971.3,1417.7-1678.3,1887.1c-247.1,164.8-739.5,413.8-1019.2,515.4C6030.6,4964.8,5258.5,5064.4,4563.1,5003.1z M5471.2,4926.5c1415.8-139.8,2693.6-894.7,3509.8-2074.8c846.8-1222.3,1074.8-2816.2,607.3-4235.9c-480.9-1463.7-1622.7-2603.6-3084.5-3084.5c-603.5-199.2-1310.4-279.7-1936.9-222.2C2074.4-4460.9,172-2378.5,172,119.7c0,2128.5,1392.8,4006,3431.2,4624.8c251,74.7,653.3,157.1,898.5,182C4741.2,4949.5,5229.8,4951.4,5471.2,4926.5z"/><path d="M3994.1,2773.1c-9.6-3.8-42.1-11.5-70.9-17.2l-53.6-11.5v-570.9c0-312.3-9.6-622.6-19.2-689.7c-46-274-155.2-463.6-352.5-607.3l-130.3-95.8l11.5-134.1c5.8-72.8,24.9-262.5,40.2-421.5c42.2-415.8,57.5-1274,30.7-1657.2c-21.1-277.8-53.6-607.3-90-883.2c-17.2-136-5.7-141.8,388.9-172.4c454-36.4,2059.5-36.4,2496.3-1.9c356.3,28.7,375.5,32.6,390.8,72.8c5.7,17.2-5.8,168.6-26.8,339.1c-101.5,850.6-105.4,1586.3-7.7,2417.8c15.3,137.9,34.5,293.1,40.2,344.8l9.6,95.8l-115,82.4c-136,95.8-199.2,164.8-266.3,298.9c-101.5,199.2-107.3,243.3-114.9,934.9c-7.7,503.9-13.4,647.5-34.5,653.3c-13.4,5.8-61.3,15.3-107.3,23l-84.3,13.4l-107.3-151.4c-206.9-287.4-402.3-421.5-683.9-467.5c-182-30.7-352.5-1.9-534.5,88.1c-162.8,80.5-266.3,176.3-408.1,379.3C4095.6,2777,4066.9,2798,3994.1,2773.1z M4022.8,2566.2c0-145.6,44.1-446.4,88.1-588.2c38.3-132.2,109.2-272.1,191.6-385.1c220.3-302.7,729.9-406.1,1115-228c220.3,101.5,402.3,339.1,490.4,632.2c44.1,149.4,88.1,429.1,88.1,569c0,105.4,21.1,164.8,44.1,126.4c5.7-9.6,1.9-109.2-7.7-226.1c-63.2-793.1-429.1-1233.8-1023-1235.7c-270.1,0-461.7,70.9-634.1,233.7c-168.6,159-275.9,364-342.9,655.2c-32.6,139.9-72.8,542.2-57.5,569C4001.7,2731,4022.8,2677.3,4022.8,2566.2z M4189.5,2518.3c203.1-279.7,479-427.2,800.8-429.2c335.3-1.9,615,139.9,825.7,421.5c57.5,74.7,109.2,137.9,114.9,137.9c34.5,0-99.6-187.7-220.3-308.4c-329.5-329.5-774-398.5-1176.3-185.8c-185.8,99.6-385.1,308.4-440.6,461.7C4072.6,2671.6,4091.8,2654.4,4189.5,2518.3z M4319.8,2269.3c132.2-122.6,298.9-208.8,457.9-241.4l116.9-24.9l5.7-145.6l5.8-147.5h93.9h93.9l5.8,147.5l5.7,145.6l118.8,24.9c237.5,47.9,492.3,220.3,655.2,438.7l42.2,57.5l-11.5-141.8c-28.7-323.8-153.3-641.8-316.1-804.6c-182-182-440.6-258.6-729.9-216.5c-335.3,47.9-547.9,237.6-672.5,597.7c-36.4,109.2-92,408.1-92,505.8v55.6l53.6-74.7C4183.7,2405.3,4258.4,2324.8,4319.8,2269.3z M6118.7,1355.4c70.9-251,166.7-398.5,358.2-538.3c51.7-38.3,93.9-80.5,93.9-95.8c0-88.1-310.4,187.8-400.4,354.4c-107.3,203.1-136,362.1-136,766.3c0,580.5,26.8,643.7,40.2,97.7C6084.2,1593,6095.7,1439.7,6118.7,1355.4z M3982.6,1851.6c1.9-413.8-24.9-570.9-134.1-775.9c-61.3-114.9-226.1-283.5-339.1-348.7c-105.4-59.4-74.7,11.5,38.3,95.8c137.9,99.6,197.3,168.6,264.4,302.7c103.5,208.8,118.8,304.6,130.3,804.6C3955.8,2468.5,3980.7,2418.7,3982.6,1851.6z M5057.3,1872.7v-124.5h-57.5h-57.5v124.5v124.5h57.5h57.5V1872.7z M6042.1,1301.8c67.1-241.4,208.8-444.5,404.2-570.9c109.2-72.8,124.5-90,115-132.2c-21.1-101.5-67.1-559.4-88.1-881.3c-36.4-534.5-3.8-1310.4,76.6-1898.6l15.3-113l-59.4-9.6c-113-17.2-674.4-46-1151.4-59.4c-567.1-13.4-1879.4,34.5-1913.9,70.9c-3.8,3.8,0,59.4,9.6,122.6c9.6,63.2,30.7,262.5,49.8,440.6c59.4,580.5,36.4,1789.4-44.1,2308.5c-9.6,65.1-7.7,69,116.9,149.4c306.5,201.2,450.2,530.7,450.2,1032.6v226.1l67.1-153.3c176.3-406.2,442.6-607.3,843-636c312.3-21.1,576.7,78.5,772.1,291.2c107.3,116.9,229.9,329.5,266.3,459.8c9.6,40.2,19.2-32.6,26.8-239.5C6005.7,1535.5,6022.9,1366.9,6042.1,1301.8z M3955.8-2370.8c622.6-38.3,2074.8-21.1,2515.4,30.6c80.5,9.6,99.6,5.7,99.6-17.2c0-19.2-30.6-30.7-109.2-40.2c-693.5-74.7-2237.7-74.7-2921.6,0c-80.5,9.6-111.1,21.1-111.1,40.2c0,23,19.2,26.8,101.5,17.2C3584.1-2345.9,3777.6-2361.2,3955.8-2370.8z"/><path d="M3543.9,273c0-9.6,9.6-19.2,21.1-19.2c9.6,0,13.4,9.6,7.7,19.2c-5.7,11.5-15.3,19.2-21.1,19.2C3547.7,292.2,3543.9,284.5,3543.9,273z"/><path d="M3551.5,125.5c30.7-252.9,51.7-854.5,38.3-1182.1c-7.7-239.5-5.7-358.3,5.8-350.6c59.4,38.3,23,1622.7-36.4,1622.7C3547.7,215.5,3545.8,179.1,3551.5,125.5z"/><path d="M6408-1642.8c-5.7-9.6-1.9-19.2,7.7-19.2c11.5,0,21.1,9.6,21.1,19.2c0,11.5-3.8,19.2-7.7,19.2C6423.3-1623.6,6413.7-1631.3,6408-1642.8z"/><path d="M6417.6-1740.5c1.9-24.9,13.4-139.9,26.8-256.7c15.3-115,23-216.5,19.2-224.2c-5.8-9.6-47.9-15.3-95.8-15.3c-47.9,0-84.3-9.6-84.3-21.1c0-13.4,36.4-15.3,111.1-5.8c59.4,5.8,111.1,13.4,111.1,15.3c9.6,7.7-61.3,528.8-72.8,540.3C6423.3-1700.3,6417.6-1715.6,6417.6-1740.5z"/></g></g>
</svg>