<?xml version="1.0" encoding="utf-8"?>
<!-- Svg Vector Icons : http://www.onlinewebfonts.com/icon -->
<!DOCTYPE svg PUBLIC "-//W3C//DTD SVG 1.1//EN" "http://www.w3.org/Graphics/SVG/1.1/DTD/svg11.dtd">
<svg version="1.1" xmlns="http://www.w3.org/2000/svg" xmlns:xlink="http://www.w3.org/1999/xlink" x="0px" y="0px" viewBox="0 0 1000 1000" enable-background="new 0 0 1000 1000" xml:space="preserve">
<metadata> Svg Vector Icons : http://www.onlinewebfonts.com/icon </metadata>
<g><g transform="translate(0.000000,512.000000) scale(0.100000,-0.100000)"><path d="M4563.1,5003.1c-252.9-23-509.6-69-800.8-141.8c-335.3-86.2-570.9-174.3-917.7-344.8c-536.4-262.5-862.1-496.2-1302.8-938.7c-442.6-440.6-676.3-766.3-938.7-1302.7C304.2,1667.7,160.5,1125.5,110.7,430.1c-46-641.8,57.5-1377.5,281.6-1988.6c101.5-279.7,350.6-772.1,515.4-1019.2c641.8-965.6,1626.5-1693.6,2716.6-2005.8c1557.5-450.2,3193.7-120.7,4460,896.6c396.6,318,833.4,816.2,1097.8,1249.1c883.2,1452.2,956,3245.4,193.5,4762.7c-373.6,745.2-971.3,1417.7-1678.3,1887.1c-247.1,164.8-739.5,413.8-1019.2,515.4C6030.6,4964.8,5258.5,5064.4,4563.1,5003.1z M5471.2,4926.5c1415.8-139.8,2693.6-894.7,3509.8-2074.8c846.8-1222.3,1074.8-2816.2,607.3-4235.9c-480.9-1463.7-1622.7-2603.6-3084.5-3084.5c-603.5-199.2-1310.4-279.7-1936.9-222.2C2074.4-4460.9,172-2378.5,172,119.7c0,2128.5,1392.8,4006,3431.2,4624.8c251,74.7,653.3,157.1,898.5,182C4741.2,4949.5,5229.8,4951.4,5471.2,4926.5z"/><path d="M5578.4,2163.9c-13.4-17.3-23-229.9-26.8-618.8c-5.7-553.7-7.7-595.8-44.1-639.9c-69-90-1026.9-967.5-1136.1-1042.2c-212.7-145.6-480.9-252.9-1201.2-480.9c-388.9-122.6-741.4-241.4-781.6-264.4c-82.4-46-176.3-176.2-205-283.5c-11.5-40.2-28.7-78.6-38.3-84.3c-11.5-5.8-19.2-80.5-19.2-164.8c0-176.3,28.7-249.1,120.7-304.6c59.4-38.3,116.9-38.3,2753-38.3c2525,0,2695.6,1.9,2758.8,34.5c105.4,51.7,137.9,138,122.6,310.4c-5.8,78.5-17.2,151.3-21.1,160.9c-5.7,9.6-9.6,195.4-7.6,411.9c1.9,266.3-5.8,465.5-26.8,613.1c-38.3,295-36.4,425.3,19.2,998.1c26.8,268.2,47.9,515.3,47.9,546v57.5l-697.4,151.3c-768.2,166.7-720.3,147.5-720.3,300.8c0,38.3-11.5,80.5-24.9,92c-28.7,23-779.7,270.1-823.8,270.1C5611,2188.8,5589.9,2177.3,5578.4,2163.9z M6024.8,1993.4l371.7-118.8l11.5-74.7c7.7-40.2,7.7-78.6,1.9-84.3c-5.7-5.7-65.1,3.8-134.1,21.1c-162.9,40.2-212.6,38.3-298.9-9.6c-101.5-57.5-132.2-122.6-160.9-341c-13.4-107.3-28.7-197.3-34.5-205c-5.7-5.7-47.9,11.5-90,38.3l-78.5,49.8v421.5c0,289.3,5.7,421.5,21.1,421.5C5645.5,2112.2,5821.7,2058.5,6024.8,1993.4z M6373.5,1637.1c124.5-30.7,500-114.9,833.4-187.8c576.6-124.5,687.8-160.9,567.1-185.8l-44.1-7.7l44.1-15.3c23-7.7,42.1-15.3,42.1-17.2c0,0-21.1-226.1-47.9-500c-26.8-274-47.9-540.3-47.9-592c0-74.7-5.8-90.1-28.7-80.5c-15.3,5.7-28.7,1.9-28.7-5.7c0-9.6,9.6-21.1,21.1-24.9c11.5-3.8-143.7-124.5-342.9-270.1c-406.2-293.1-509.6-394.6-590.1-578.6l-55.6-124.5L5657-949.3c-1013.5,5.8-1038.4,5.8-1092,46c-69,49.8-139.8,187.8-139.8,272c0,69,65.1,214.6,95.8,214.6c26.8,0,65.1-93.9,59.4-145.6c-7.7-86.2,115-109.2,141.8-24.9c9.6,26.8,0,53.6-26.8,82.4c-46,47.9-53.7,126.5-15.3,126.5c15.3,0,42.1,17.2,61.3,38.3c42.1,46,15.3,49.8-44.1,7.6c-38.3-26.8-42.1-26.8-42.1,7.7c0,36.4,136,176.3,168.6,176.3c28.7,0,74.7-63.2,88.1-118.8c13.4-59.4,76.6-86.2,116.9-53.6c36.4,30.6,36.4,74.7-1.9,116.9c-17.2,19.2-34.5,70.9-38.3,116.9c-9.6,76.6-3.8,88.1,74.7,164.7l84.3,84.3l40.2-51.7c23-26.8,36.4-61.3,30.7-74.7c-5.8-13.4,9.6-40.2,30.7-59.4c30.6-28.7,47.9-32.6,72.8-17.2c44.1,28.7,53.6,105.4,15.3,126.4c-23,11.5-30.6,46-30.6,118.8c0,93.9,5.7,109.2,67.1,162.8c38.3,32.6,74.7,59.4,80.5,59.4c30.6,0,82.4-67.1,82.4-105.4c0-84.3,113-113,141.8-36.4c15.3,38.3-19.2,103.5-53.6,103.5c-15.3,0-30.6,32.6-38.3,80.5c-13.4,76.6-9.6,82.4,69,151.3c80.4,69,84.3,70.9,136,40.2c28.7-17.3,51.7-44.1,51.7-61.3c0-74.7,99.6-103.4,134.1-38.3c24.9,46-3.8,115-47.9,115c-15.3,0-36.4,17.2-47.9,38.3c-13.4,26.8-13.4,38.3,0,38.3c9.6,0,19.2,17.2,19.2,38.3c0,47.9-32.6,49.8-44.1,5.7c-7.7-32.6-7.7-32.6-23,0c-21.1,49.8,7.7,285.5,34.5,275.9c13.4-3.8,24.9-24.9,28.7-47.9c7.7-46,32.6-55.6,47.9-17.3c7.7,13.4,11.5,11.5,11.5-7.7c3.8-55.6,53.7-82.4,107.3-59.4c93.9,42.2,40.2,151.4-63.2,128.4c-38.3-7.7-67.1,0-99.6,24.9c-44.1,34.5-44.1,36.4-19.2,235.6c28.7,229.9,38.3,266.3,97.7,321.9C6036.3,1704.1,6101.5,1702.2,6373.5,1637.1z M5712.5,1163.9c65.1-44.1,69-51.7,59.4-128.4c-5.7-46-13.4-86.2-17.2-90c-1.9-1.9-36.4,55.6-72.8,130.3c-38.3,74.7-63.2,136-53.6,136C5635.9,1211.7,5674.2,1190.7,5712.5,1163.9z M5687.6,991.4c61.3-109.2,70.9-153.3,40.2-201.2c-15.3-24.9-26.8-23-86.2,7.7c-55.6,30.7-67.1,46-55.6,76.6c5.7,23,17.3,80.5,21.1,132.2c5.8,49.8,11.5,90,15.3,90C5626.3,1096.8,5655.1,1048.9,5687.6,991.4z M6072.7,1010.6c0-28.7-49.8-61.3-69-44.1c-3.8,5.7-3.8,24.9,3.8,42.1C6022.9,1047,6072.7,1048.9,6072.7,1010.6z M5612.9,771.1l47.9-36.4l-47.9-49.8c-49.8-53.6-63.2-44.1-82.4,63.2C5515.2,820.9,5540.1,826.7,5612.9,771.1z M5515.2,633.2c1.9-32.6-13.4-63.2-40.2-82.4c-42.1-28.7-46-26.8-86.2,19.2c-24.9,26.8-44.1,57.5-44.1,67.1s32.6,42.1,72.8,74.7l70.9,59.4l13.4-42.2C5507.6,704.1,5513.3,661.9,5515.2,633.2z M5837.1,702.1c-23-23-70.9,9.6-57.5,40.2c9.6,28.7,13.4,28.7,40.2,1.9C5837.1,727.1,5844.7,709.8,5837.1,702.1z M5950.1,581.5c-13.4-21.1-69-30.7-69-11.5c0,5.7,11.5,23,24.9,38.3C5930.9,637,5969.3,614,5950.1,581.5z M5358.1,451.2l-51.7-53.6v105.4v105.4l51.7-53.6l53.6-51.7L5358.1,451.2z M5266.2,460.7c-1.9-93.9-7.7-107.3-74.7-164.8l-72.8-63.2l-44.1,61.3l-44.1,61.3l115,101.5c61.3,57.5,115,103.5,118.8,103.5C5266.2,560.4,5268.1,514.4,5266.2,460.7z M5555.4,464.6c0-21.1-7.7-38.3-17.2-38.3c-26.8,0-44.1,34.5-30.6,57.5C5526.7,516.3,5555.4,504.8,5555.4,464.6z M5637.8,290.2c-13.4-13.4-36.4-17.2-55.6-9.6c-30.7,11.5-30.7,15.3,3.8,40.2C5628.3,351.6,5672.3,324.7,5637.8,290.2z M5051.6,269.2c57.5-53.6,55.5-61.3-13.4-111.1l-57.5-40.2v95.8c0,53.6,5.7,97.7,13.4,97.7C5001.8,311.3,5026.7,292.2,5051.6,269.2z M4884.9,16.3l-80.5-74.7l-49.8,51.7l-51.7,53.6l124.5,115L4952,276.8l5.7-92C4963.5,96.7,4959.6,87.1,4884.9,16.3z M5241.2,160c-28.7-26.8-34.5-26.8-49.8-1.9c-13.4,21.1-5.7,38.3,24.9,61.3c38.3,28.7,42.1,28.7,47.9,1.9C5268.1,205.9,5258.5,177.2,5241.2,160z M5331.3,2.9c-13.4-13.4-36.4-17.2-55.6-9.6c-30.6,11.5-30.6,15.3,3.8,40.2C5321.7,64.2,5365.8,37.3,5331.3,2.9z M4725.9-37.4l44.1-42.1l-42.1-44.1c-59.4-63.2-72.8-55.5-72.8,42.2c0,47.9,5.7,86.2,13.4,86.2C4676.1,4.8,4701-14.4,4725.9-37.4z M4635.9-140.8c0-38.3-17.2-74.7-53.6-109.2c-28.7-28.7-59.4-51.7-67.1-51.7c-5.8,0-26.8,26.8-42.1,59.4l-30.7,57.5l82.4,74.7C4612.9-31.6,4635.9-37.4,4635.9-140.8z M4961.6-58.4c0-13.4-11.5-42.1-26.8-63.2c-23-28.7-32.6-30.7-51.7-13.4c-19.2,19.2-17.2,32.6,11.5,63.2C4934.7-27.8,4961.6-22,4961.6-58.4z M7739.5-87.2c0-7.7-9.6-24.9-23-38.3c-17.2-17.2-15.3-28.7,9.6-46c42.1-34.5,78.6-517.3,61.3-823.8l-13.4-226h-467.5H6839v47.9c0,26.8-7.7,47.9-19.2,47.9c-9.6,0-19.2-21.1-19.2-47.9c0-30.7-11.5-47.9-30.6-47.9c-26.8,0-30.7,15.3-19.2,116.9c19.2,164.7,78.5,310.3,172.4,423.4c47.9,61.3,214.6,195.4,433,354.4c195.4,139.9,360.2,254.8,369.8,254.8C7733.7-71.8,7739.5-79.5,7739.5-87.2z M4961.6-167.6c0-9.6-9.6-19.2-21.1-19.2c-9.6,0-13.4,9.6-7.7,19.2c5.7,11.5,15.3,19.2,21.1,19.2C4957.7-148.5,4961.6-156.1,4961.6-167.6z M4451.9-271.1c34.5-65.1,34.5-65.1-13.4-130.3c-149.4-195.4-74.7-490.4,147.5-592c72.8-32.6,147.5-36.4,1090.1-36.4h1009.6v-95.8v-95.8l-1486.7,3.8l-1488.6,5.8l-103.5,304.6c-55.6,168.6-95.8,312.3-88.1,319.9c7.7,7.7,105.4,40.2,214.6,74.7c222.2,67.1,423.4,155.2,567.1,245.2c53.6,32.6,99.6,61.3,105.4,61.3S4432.8-234.7,4451.9-271.1z M5019-263.4c0-21.1-11.5-38.3-26.8-38.3c-40.2,0-59.4,40.2-28.7,59.4C5005.6-215.5,5019-221.3,5019-263.4z M4614.8-409c-21.1-26.8-26.8-24.9-42.1,1.9c-11.5,23-7.7,38.3,19.2,57.5c28.7,23,34.5,21.1,40.2-1.9C4635.9-366.9,4628.2-393.7,4614.8-409z M4693.3-560.4c0-30.7-51.7-61.3-69-42.2c-13.4,11.5,32.6,69,55.6,70.9C4687.6-531.6,4693.3-545.1,4693.3-560.4z M3540-928.2l95.8-293.1h-697.4h-699.3l11.5,44c21.1,63.2,76.6,151.4,132.2,203.1c51.7,47.9,1026.9,373.6,1047.9,350.6C3438.5-631.3,3486.4-769.2,3540-928.2z M6404.1-1311.4c-770.2-3.8-2038.4-3.8-2816.2,0c-777.8,1.9-145.6,3.8,1402.4,3.8C6540.2-1307.5,7176.2-1309.5,6404.1-1311.4z M6411.8-1368.9c-775.9-3.8-2048-3.8-2825.8,0c-775.9,1.9-139.9,3.9,1413.9,3.9C6553.6-1365,7189.6-1366.9,6411.8-1368.9z M4059.2-1568.1l101.5-113h-929.2h-927.3l-51.7,49.8c-34.5,34.5-49.8,70.9-49.8,115v65.1l877.4-1.9h875.5L4059.2-1568.1z M7816.1-1516.4c0-44.1-15.3-80.5-49.8-115l-51.7-49.8H5988.4H4260.4l-99.6,114.9l-101.5,115h1877.5h1879.4V-1516.4z"/><path d="M5674.2,1773.1l3.8-283.5l5.8,264.4l7.6,262.5l51.7-13.4c28.7-5.7,162.8-49.8,300.8-95.8c281.6-93.9,258.6-88.1,258.6-63.2c0,13.4-576.7,210.7-620.7,210.7C5676.1,2054.7,5672.3,1928.3,5674.2,1773.1z"/><path d="M6130.2,1614.1c0-13.4,46-38.3,69-38.3c24.9,0,1.9,36.4-30.6,44.1C6147.4,1625.6,6130.2,1623.6,6130.2,1614.1z"/><path d="M6024.8,1593c-23-36.4,9.6-44.1,42.1-11.5c30.6,30.7,30.6,32.6,1.9,32.6C6051.6,1614.1,6030.6,1604.5,6024.8,1593z"/><path d="M6254.7,1575.8c5.8-9.6,24.9-19.2,40.2-19.2c15.3,0,26.8,9.6,26.8,19.2c0,11.5-17.3,19.2-40.2,19.2C6260.5,1594.9,6249,1587.3,6254.7,1575.8z"/><path d="M6360.1,1556.6c0-9.6,17.3-19.2,40.2-19.2c21.1,0,32.6,9.6,26.8,19.2c-5.8,11.5-24.9,19.2-40.2,19.2C6371.6,1575.8,6360.1,1568.1,6360.1,1556.6z"/><path d="M6475,1539.4c0-21.1,59.4-46,74.7-30.7c5.7,5.7-1.9,19.2-17.3,28.7C6496.1,1560.4,6475,1560.4,6475,1539.4z"/><path d="M5976.9,1520.2c0-9.6-5.7-30.7-11.5-47.9c-5.7-17.2-3.8-30.7,7.7-30.7c24.9,0,44.1,72.8,21.1,88.1C5984.6,1535.5,5976.9,1531.7,5976.9,1520.2z"/><path d="M6599.6,1499.1c5.7-9.6,24.9-19.2,40.2-19.2c15.3,0,26.8,9.6,26.8,19.2c0,11.5-17.2,19.2-40.2,19.2C6605.3,1518.3,6593.8,1510.6,6599.6,1499.1z"/><path d="M6042.1,1472.3c-23-59.4,0-97.7,57.5-97.7c69,0,107.3,49.8,70.9,93.9C6137.9,1506.8,6055.5,1508.7,6042.1,1472.3z M6143.6,1449.3c17.2-44.1-24.9-76.6-61.3-46c-23,19.2-24.9,30.7-7.7,49.8C6103.4,1487.6,6128.3,1487.6,6143.6,1449.3z"/><path d="M6704.9,1480c0-9.6,17.3-19.2,40.2-19.2c21.1,0,32.6,9.6,26.8,19.2c-5.7,11.5-24.9,19.2-40.2,19.2C6716.4,1499.1,6704.9,1491.5,6704.9,1480z"/><path d="M6819.9,1462.7c0-9.6,17.3-21.1,38.3-26.8c46-11.5,51.7,15.3,7.7,32.6C6825.6,1483.8,6819.9,1483.8,6819.9,1462.7z"/><path d="M6954,1422.5c36.4-24.9,57.5-24.9,57.5,0c0,11.5-19.2,19.2-42.1,19.2C6932.9,1441.6,6931,1437.8,6954,1422.5z"/><path d="M7049.8,1403.3c0-9.6,17.2-19.2,38.3-19.2s38.3,9.6,38.3,19.2c0,11.5-17.3,19.2-38.3,19.2S7049.8,1414.8,7049.8,1403.3z"/><path d="M5952,1365c-5.8-21.1-1.9-38.3,7.6-38.3s17.2,3.8,17.2,7.7c0,3.8,5.8,21.1,11.5,38.3c5.8,17.2,3.8,30.7-7.7,30.7C5971.2,1403.3,5957.8,1386.1,5952,1365z"/><path d="M7164.7,1384.2c0-9.6,19.2-19.2,44.1-19.2c34.5,0,36.4,3.8,13.4,19.2C7185.8,1409.1,7164.7,1409.1,7164.7,1384.2z"/><path d="M7298.8,1345.9c36.4-24.9,57.5-24.9,57.5,0c0,11.5-19.2,19.2-42.1,19.2C7277.8,1365,7275.8,1361.2,7298.8,1345.9z"/><path d="M7394.6,1326.7c0-9.6,17.2-19.2,38.3-19.2c21.1,0,38.3,9.6,38.3,19.2c0,11.5-17.2,19.2-38.3,19.2C7411.9,1345.9,7394.6,1338.2,7394.6,1326.7z"/><path d="M7509.6,1307.5c0-9.6,17.2-19.2,40.2-19.2c21.1,0,32.6,9.6,26.8,19.2c-5.7,11.5-24.9,19.2-40.2,19.2C7521.1,1326.7,7509.6,1319,7509.6,1307.5z"/><path d="M7624.5,1288.4c0-13.4,46-38.3,69-38.3c24.9,0,1.9,36.4-30.6,44.1C7641.8,1299.9,7624.5,1298,7624.5,1288.4z"/><path d="M5938.6,1246.2c0-36.4,3.8-38.3,19.2-15.3c24.9,36.4,24.9,57.5,0,57.5C5948.2,1288.4,5938.6,1269.2,5938.6,1246.2z"/><path d="M6963.6,1156.2c-99.6-44.1-193.5-153.3-220.3-254.8C6639.8,522.1,7109.2,250,7387,529.7c120.7,120.7,153.3,277.8,86.2,423.4C7379.3,1154.3,7155.2,1244.3,6963.6,1156.2z M7275.8,1117.9c88.1-44.1,128.4-88.1,166.7-180.1c38.3-92,36.4-197.3-7.7-293.1c-118.8-260.6-505.8-262.5-632.2-3.8c-116.9,243.3,46,509.6,310.4,513.4C7166.6,1154.3,7233.7,1139,7275.8,1117.9z"/><path d="M6992.3,1096.8c-15.3-9.6-23-23-17.2-28.7c15.3-15.3,74.7,9.6,74.7,30.7S7028.7,1119.8,6992.3,1096.8z"/><path d="M7103.4,1102.5c11.5-3.8,34.5-3.8,47.9,0c11.5,5.8,1.9,9.6-24.9,9.6S7090,1108.3,7103.4,1102.5z"/><path d="M7203,1096.8c0-23,53.6-47.9,69-32.6c5.8,5.8-7.7,19.2-28.7,32.6C7214.5,1110.2,7203,1110.2,7203,1096.8z"/><path d="M6896.5,1029.7c-13.4-17.2-21.1-34.5-15.3-38.3c5.7-5.7,21.1,1.9,34.5,19.2c13.4,17.2,21.1,34.5,15.3,38.3C6925.3,1054.6,6909.9,1047,6896.5,1029.7z"/><path d="M6990.4,1014.4c-137.9-90-164.8-256.7-63.2-377.4c99.6-118.8,279.7-116.9,379.3,1.9c103.4,122.6,76.6,281.6-63.2,375.5C7160.9,1070,7072.8,1070,6990.4,1014.4z M7273.9,958.9c97.7-99.6,70.9-287.4-51.7-350.6c-195.4-101.5-398.5,101.5-297,297C6988.5,1025.9,7176.2,1054.6,7273.9,958.9z"/><path d="M7318,1010.6c13.4-15.3,30.6-28.7,40.2-28.7s11.5,13.4,5.8,28.7c-7.7,15.3-24.9,28.7-40.2,28.7C7298.8,1039.3,7298.8,1033.6,7318,1010.6z"/><path d="M6833.3,951.2c-7.7-7.7-13.4-26.8-13.4-44.1c0-21.1,5.7-23,21.1-7.7c11.5,11.5,19.2,30.6,13.4,44.1C6850.5,955,6840.9,958.9,6833.3,951.2z"/><path d="M7375.5,930.1c0-26.8,36.4-72.8,47.9-61.3c15.3,15.3-9.6,74.7-30.7,74.7C7383.1,943.5,7375.5,937.8,7375.5,930.1z"/><path d="M6804.6,809.4c0-26.8,3.8-36.4,9.6-23c3.8,11.5,3.8,34.5,0,47.9C6808.4,845.8,6804.6,836.2,6804.6,809.4z"/><path d="M7417.6,790.3c0-26.8,3.8-36.4,9.6-23c3.8,11.5,3.8,34.5,0,47.9C7421.5,826.7,7417.6,817.1,7417.6,790.3z"/><path d="M6800.7,719.4c0-26.8,36.4-72.8,47.9-61.3c15.3,15.3-9.6,74.7-30.6,74.7C6808.4,732.8,6800.7,727.1,6800.7,719.4z"/><path d="M7381.2,684.9c-17.2-47.9,7.7-55.6,32.6-11.5c13.4,28.7,13.4,40.2,0,40.2C7402.3,713.6,7388.9,700.2,7381.2,684.9z"/><path d="M6877.4,589.1c13.4-15.3,32.6-28.7,42.1-28.7c11.5,0,9.6,13.4-3.8,28.7c-13.4,15.3-32.6,28.7-42.1,28.7C6862,617.8,6863.9,604.4,6877.4,589.1z"/><path d="M7318,589.1c-13.4-17.2-21.1-34.5-15.3-38.3c5.7-5.7,21.1,1.9,34.5,19.2c13.4,17.2,21.1,34.5,15.3,38.3C7346.7,614,7331.4,606.4,7318,589.1z"/><path d="M6963.6,522.1c5.7-9.6,24.9-19.2,40.2-19.2c15.3,0,23,9.6,17.2,19.2c-5.7,11.5-24.9,19.2-40.2,19.2C6965.5,541.2,6957.8,533.6,6963.6,522.1z"/><path d="M7203,522.1c-15.3-9.6-23-23-17.2-28.7c15.3-15.3,74.7,9.6,74.7,30.7C7260.5,545,7239.5,545,7203,522.1z"/><path d="M7068.9,502.9c0-9.6,19.2-19.2,44.1-19.2c34.5,0,36.4,3.8,13.4,19.2C7090,527.8,7068.9,527.8,7068.9,502.9z"/><path d="M5919.5,1133.2c0-21.1,9.6-32.6,19.2-26.8c11.5,5.7,19.2,24.9,19.2,40.2c0,15.3-7.7,26.8-19.2,26.8C5929,1173.4,5919.5,1156.2,5919.5,1133.2z"/><path d="M7720.3,1001c0-9.6,9.6-19.2,21.1-19.2c9.6,0,13.4,9.6,7.7,19.2c-5.7,11.5-15.3,19.2-21.1,19.2C7724.1,1020.2,7720.3,1012.5,7720.3,1001z"/><path d="M5881.1,905.2c0-21.1,9.6-38.3,19.2-38.3c11.5,0,19.2,17.2,19.2,38.3c0,21.1-7.7,38.3-19.2,38.3C5890.7,943.5,5881.1,926.3,5881.1,905.2z"/><path d="M7718.4,941.6c-15.3-42.1-63.2-630.3-51.7-630.3c17.2,0,28.7,74.7,55.5,369.7c11.5,136,15.3,251,9.6,256.7C7726.1,945.5,7718.4,945.5,7718.4,941.6z"/><path d="M5727.9,589.1c-13.4-17.2-21.1-34.5-15.3-38.3c5.7-5.7,21.1,1.9,34.5,19.2s21.1,34.5,15.3,38.3C5756.6,614,5741.3,606.4,5727.9,589.1z"/><path d="M5622.5,501c-23-36.4,9.6-44.1,42.2-11.5c30.6,30.7,30.6,32.6,1.9,32.6C5649.3,522.1,5628.3,512.5,5622.5,501z"/><path d="M5727.9,464.6c36.4-24.9,57.5-24.9,57.5,0c0,11.5-19.2,19.2-42.2,19.2C5706.8,483.7,5704.9,479.9,5727.9,464.6z"/><path d="M5823.7,445.4c0-9.6,17.2-19.2,38.3-19.2c21.1,0,38.3,9.6,38.3,19.2c0,11.5-17.2,19.2-38.3,19.2C5840.9,464.6,5823.7,456.9,5823.7,445.4z"/><path d="M5938.6,426.3c0-9.6,19.2-19.2,44.1-19.2c34.5,0,36.4,3.8,13.4,19.2C5959.7,451.2,5938.6,451.2,5938.6,426.3z"/><path d="M6072.7,387.9c36.4-24.9,57.5-24.9,57.5,0c0,11.5-19.2,19.2-42.2,19.2C6051.6,407.1,6049.7,403.3,6072.7,387.9z"/><path d="M6168.5,368.8c0-9.6,17.3-19.2,40.2-19.2c21.1,0,32.6,9.6,26.8,19.2c-5.8,11.5-24.9,19.2-40.2,19.2C6180,387.9,6168.5,380.3,6168.5,368.8z"/><path d="M6283.5,351.6c0-9.6,17.2-21.1,38.3-26.8c46-11.5,51.7,15.3,7.7,32.6C6289.2,372.6,6283.5,372.6,6283.5,351.6z"/><path d="M5430.9,328.6c-23-36.4,9.6-44.1,42.1-11.5c30.6,30.7,30.6,32.6,1.9,32.6C5457.7,349.6,5436.7,340.1,5430.9,328.6z"/><path d="M6408,311.3c5.7-9.6,24.9-19.2,40.2-19.2c15.3,0,26.8,9.6,26.8,19.2c0,11.5-17.2,19.2-40.2,19.2C6413.7,330.5,6402.2,322.8,6408,311.3z"/><path d="M6513.4,292.2c0-9.6,17.2-19.2,40.2-19.2c21.1,0,32.6,9.6,26.8,19.2c-5.7,11.5-24.9,19.2-40.2,19.2C6524.8,311.3,6513.4,303.7,6513.4,292.2z"/><path d="M6628.3,274.9c0-9.6,17.3-21.1,38.3-26.8c46-11.5,51.7,15.3,7.7,32.6C6634,296,6628.3,296,6628.3,274.9z"/><path d="M5344.7,244.3c-13.4-17.2-21.1-34.5-15.3-38.3c5.8-5.7,21.1,1.9,34.5,19.2c13.4,17.2,21.1,34.5,15.3,38.3C5373.4,269.2,5358.1,261.5,5344.7,244.3z"/><path d="M6752.8,234.7c5.7-9.6,24.9-19.2,40.2-19.2c15.3,0,26.8,9.6,26.8,19.2c0,11.5-17.2,19.2-40.2,19.2C6758.6,253.8,6747.1,246.2,6752.8,234.7z"/><path d="M6858.2,215.5c0-9.6,17.2-19.2,40.2-19.2c21.1,0,32.6,9.6,26.8,19.2c-5.7,11.5-24.9,19.2-40.2,19.2C6869.7,234.7,6858.2,227,6858.2,215.5z"/><path d="M6973.2,198.3c0-9.6,17.2-21.1,38.3-26.8c46-11.5,51.7,15.3,7.7,32.6C6978.9,219.4,6973.2,219.4,6973.2,198.3z"/><path d="M7097.7,158.1c5.7-9.6,24.9-19.2,40.2-19.2c15.3,0,26.8,9.6,26.8,19.2c0,11.5-17.2,19.2-40.2,19.2C7103.4,177.2,7091.9,169.6,7097.7,158.1z"/><path d="M7203,138.9c0-9.6,17.2-19.2,40.2-19.2c21.1,0,32.6,9.6,26.8,19.2c-5.7,11.5-24.9,19.2-40.2,19.2C7214.5,158.1,7203,150.4,7203,138.9z"/><path d="M7318,119.7c0-13.4,46-38.3,69-38.3c24.9,0,1.9,36.4-30.6,44.1C7335.2,131.2,7318,129.3,7318,119.7z"/><path d="M5143.6,62.3c-19.2-21.1-24.9-38.3-15.3-38.3c24.9,0,72.8,55.5,59.4,67.1C5181.9,96.7,5162.7,83.3,5143.6,62.3z"/><path d="M7442.5,81.4c5.7-9.6,24.9-19.2,40.2-19.2c15.3,0,26.8,9.6,26.8,19.2c0,11.5-17.3,19.2-40.2,19.2C7448.3,100.6,7436.8,92.9,7442.5,81.4z"/><path d="M7547.9,62.3c0-9.6,17.3-19.2,40.2-19.2c21.1,0,32.6,9.6,26.8,19.2c-5.7,11.5-24.9,19.2-40.2,19.2C7559.4,81.4,7547.9,73.8,7547.9,62.3z"/><path d="M5038.2-23.9c-13.4-17.2-19.2-34.5-13.4-42.2c15.3-13.4,70.9,28.7,70.9,53.7C5095.7,14.4,5065,8.6,5038.2-23.9z"/><path d="M4812.1-229c-36.4-36.4-26.8-57.5,15.3-34.5c21.1,11.5,38.3,28.7,38.3,38.3C4865.8-198.3,4838.9-202.1,4812.1-229z"/><path d="M4511.3-556.6c-7.7-19.2-9.6-40.2-1.9-46c19.2-19.2,34.5,7.7,24.9,46C4526.7-524,4526.7-524,4511.3-556.6z"/><path d="M4501.8-673.4c0-15.3,9.6-34.5,19.2-40.2c11.5-5.8,19.2,5.7,19.2,26.8c0,23-7.7,40.2-19.2,40.2C4511.3-646.6,4501.8-658.1,4501.8-673.4z"/><path d="M4568.8-799.8c19.2-21.1,38.3-34.5,44.1-28.7c13.4,11.5-34.5,67.1-59.4,67.1C4543.9-761.5,4549.7-778.8,4568.8-799.8z"/><path d="M4655-855.4c0-21.1,59.4-46,74.7-30.6c5.8,5.7-1.9,19.2-17.2,28.7C4676.1-834.3,4655-834.3,4655-855.4z"/><path d="M4770-876.5c0-9.6,17.2-19.2,38.3-19.2c21.1,0,38.3,9.6,38.3,19.2c0,11.5-17.2,19.2-38.3,19.2C4787.2-857.3,4770-865,4770-876.5z"/><path d="M4884.9-876.5c0-9.6,17.2-19.2,38.3-19.2c21.1,0,38.3,9.6,38.3,19.2c0,11.5-17.2,19.2-38.3,19.2C4902.2-857.3,4884.9-865,4884.9-876.5z"/><path d="M4999.9-876.5c0-9.6,17.2-19.2,38.3-19.2c21.1,0,38.3,9.6,38.3,19.2c0,11.5-17.2,19.2-38.3,19.2C5017.1-857.3,4999.9-865,4999.9-876.5z"/><path d="M5114.8-876.5c0-9.6,17.2-19.2,38.3-19.2c21.1,0,38.3,9.6,38.3,19.2c0,11.5-17.2,19.2-38.3,19.2C5132-857.3,5114.8-865,5114.8-876.5z"/><path d="M5229.8-876.5c0-9.6,17.2-19.2,38.3-19.2c21.1,0,38.3,9.6,38.3,19.2c0,11.5-17.2,19.2-38.3,19.2C5247-857.3,5229.8-865,5229.8-876.5z"/><path d="M5344.7-876.5c0-9.6,17.2-19.2,38.3-19.2c21.1,0,38.3,9.6,38.3,19.2c0,11.5-17.3,19.2-38.3,19.2C5361.9-857.3,5344.7-865,5344.7-876.5z"/><path d="M5459.7-876.5c0-9.6,17.2-19.2,38.3-19.2c21.1,0,38.3,9.6,38.3,19.2c0,11.5-17.2,19.2-38.3,19.2C5476.9-857.3,5459.7-865,5459.7-876.5z"/><path d="M5574.6-876.5c0-9.6,17.2-19.2,38.3-19.2c21.1,0,38.3,9.6,38.3,19.2c0,11.5-17.2,19.2-38.3,19.2C5591.8-857.3,5574.6-865,5574.6-876.5z"/><path d="M5689.6-876.5c0-9.6,17.2-19.2,38.3-19.2c21.1,0,38.3,9.6,38.3,19.2c0,11.5-17.3,19.2-38.3,19.2C5706.8-857.3,5689.6-865,5689.6-876.5z"/><path d="M5804.5-876.5c0-9.6,17.2-19.2,38.3-19.2c21.1,0,38.3,9.6,38.3,19.2c0,11.5-17.3,19.2-38.3,19.2C5821.7-857.3,5804.5-865,5804.5-876.5z"/><path d="M5919.5-876.5c0-9.6,17.2-19.2,38.3-19.2c21.1,0,38.3,9.6,38.3,19.2c0,11.5-17.2,19.2-38.3,19.2C5936.7-857.3,5919.5-865,5919.5-876.5z"/><path d="M6034.4-876.5c0-9.6,17.2-19.2,38.3-19.2c21.1,0,38.3,9.6,38.3,19.2c0,11.5-17.2,19.2-38.3,19.2C6051.6-857.3,6034.4-865,6034.4-876.5z"/><path d="M6149.4-876.5c0-9.6,17.2-19.2,38.3-19.2s38.3,9.6,38.3,19.2c0,11.5-17.3,19.2-38.3,19.2S6149.4-865,6149.4-876.5z"/><path d="M6264.3-876.5c0-9.6,17.3-19.2,38.3-19.2s38.3,9.6,38.3,19.2c0,11.5-17.2,19.2-38.3,19.2S6264.3-865,6264.3-876.5z"/><path d="M6379.2-876.5c0-9.6,17.2-19.2,38.3-19.2c21.1,0,38.3,9.6,38.3,19.2c0,11.5-17.2,19.2-38.3,19.2C6396.5-857.3,6379.2-865,6379.2-876.5z"/><path d="M6494.2-876.5c0-9.6,17.2-19.2,38.3-19.2c21.1,0,38.3,9.6,38.3,19.2c0,11.5-17.2,19.2-38.3,19.2C6511.4-857.3,6494.2-865,6494.2-876.5z"/><path d="M6609.1-876.5c0-9.6,17.2-19.2,38.3-19.2s38.3,9.6,38.3,19.2c0,11.5-17.3,19.2-38.3,19.2S6609.1-865,6609.1-876.5z"/><path d="M7605.4-205.9c-15.3-9.6-21.1-23-13.4-30.7c7.7-7.6,28.7,0,46,17.2C7672.4-184.9,7653.3-175.3,7605.4-205.9z"/><path d="M7494.3-286.4c-36.4-36.4-26.8-57.5,15.3-34.5c21.1,11.5,38.3,28.7,38.3,38.3C7547.9-255.8,7521.1-259.6,7494.3-286.4z"/><path d="M7383.1-366.9c-19.2-15.3-28.7-34.5-21.1-42.1c7.7-7.6,28.7,0,46,17.2C7450.2-351.6,7431-332.4,7383.1-366.9z"/><path d="M7260.5-455c-15.3-9.6-21.1-23-13.4-30.7c7.7-7.7,28.7,0,46,17.2C7327.6-433.9,7308.4-424.4,7260.5-455z"/><path d="M7718.4-464.6c-5.8-9.6-5.8-130.3,0-268.2c11.5-201.2,15.3-231.8,26.8-162.8C7760.5-801.8,7737.6-433.9,7718.4-464.6z"/><path d="M7155.2-533.6c-23-36.4,9.6-44.1,42.1-11.5c30.6,30.7,30.6,32.6,1.9,32.6C7182-512.5,7160.9-522.1,7155.2-533.6z"/><path d="M7049.8-617.8c-26.8-30.7-19.2-34.5,26.8-17.3c17.2,5.8,30.6,19.2,30.6,28.7C7107.3-579.5,7076.6-585.3,7049.8-617.8z"/><path d="M6975.1-692.6c-15.3-17.2-21.1-36.4-13.4-44.1c17.2-17.2,55.5,24.9,46,51.8C7003.8-669.6,6992.3-671.5,6975.1-692.6z"/><path d="M6898.4-807.5c-15.3-17.2-21.1-36.4-13.4-44.1c17.2-17.2,55.5,24.9,46,51.7C6927.2-784.5,6915.7-786.4,6898.4-807.5z"/><path d="M6848.6-920.6c-7.7-19.2-9.6-40.2-1.9-46c19.2-19.2,34.5,7.7,24.9,46C6863.9-888,6863.9-888,6848.6-920.6z"/><path d="M6819.9-1050.8c0-21.1,9.6-32.6,19.2-26.8c11.5,5.7,19.2,24.9,19.2,40.2c0,15.3-7.7,26.8-19.2,26.8C6829.5-1010.6,6819.9-1027.8,6819.9-1050.8z"/><path d="M7701.2-1029.7c0-9.6,9.6-19.2,19.2-19.2c11.5,0,19.2,9.6,19.2,19.2c0,11.5-7.7,19.2-19.2,19.2C7710.7-1010.6,7701.2-1018.3,7701.2-1029.7z"/><path d="M3394.4-746.2c90-252.9,118.8-321.8,132.2-321.8c7.7,0-11.5,78.5-44.1,172.4c-30.6,95.8-65.1,172.4-76.6,172.4C3394.4-723.2,3390.6-734.7,3394.4-746.2z"/><path d="M2630-909.1c-153.3-47.9-298.9-139.8-268.2-170.5c7.7-7.7,38.3,9.6,67.1,38.3c34.5,30.7,115,69,216.5,99.6c88.1,26.8,168.6,57.5,180.1,67.1C2854.2-845.8,2798.6-855.4,2630-909.1z"/><path d="M3524.7-1125.5c0-9.6,9.6-19.2,19.2-19.2c11.5,0,19.2,9.6,19.2,19.2c0,11.5-7.7,19.2-19.2,19.2C3534.3-1106.4,3524.7-1114,3524.7-1125.5z"/><path d="M2317.7-1144.7c0-9.6,9.6-19.2,19.2-19.2c11.5,0,19.2,9.6,19.2,19.2c0,11.5-7.7,19.2-19.2,19.2C2327.3-1125.5,2317.7-1133.2,2317.7-1144.7z"/><path d="M2241.1-1518.3c0-17.3,21.1-51.7,47.9-76.6c46-47.9,47.9-47.9,440.6-47.9c249.1,0,392.7,7.7,392.7,19.2c0,11.5-145.6,19.2-398.5,19.2c-411.9,0-444.5,5.7-444.5,80.4c0,19.2-7.7,34.5-19.2,34.5C2250.7-1489.5,2241.1-1503,2241.1-1518.3z"/><path d="M3160.7-1623.6c0-9.6,9.6-19.2,19.2-19.2c11.5,0,19.2,9.6,19.2,19.2c0,11.5-7.7,19.2-19.2,19.2C3170.3-1604.5,3160.7-1612.2,3160.7-1623.6z"/><path d="M4961.6-1623.6c0-9.6,9.6-19.2,19.2-19.2c11.5,0,19.2,9.6,19.2,19.2c0,11.5-7.7,19.2-19.2,19.2C4971.1-1604.5,4961.6-1612.2,4961.6-1623.6z"/><path d="M5038.2-1623.6c0-13.4,277.8-19.2,795.1-19.2s795.1,5.7,795.1,19.2c0,13.4-277.8,19.2-795.1,19.2S5038.2-1610.2,5038.2-1623.6z"/><path d="M6666.6-1623.6c0-9.6,9.6-19.2,19.2-19.2c11.5,0,19.2,9.6,19.2,19.2c0,11.5-7.7,19.2-19.2,19.2C6676.2-1604.5,6666.6-1612.2,6666.6-1623.6z"/></g></g>
</svg>