<?xml version="1.0" encoding="utf-8"?>
<!-- Svg Vector Icons : http://www.onlinewebfonts.com/icon -->
<!DOCTYPE svg PUBLIC "-//W3C//DTD SVG 1.1//EN" "http://www.w3.org/Graphics/SVG/1.1/DTD/svg11.dtd">
<svg version="1.1" xmlns="http://www.w3.org/2000/svg" xmlns:xlink="http://www.w3.org/1999/xlink" x="0px" y="0px" viewBox="0 0 1000 1000" enable-background="new 0 0 1000 1000" xml:space="preserve">
<metadata> Svg Vector Icons : http://www.onlinewebfonts.com/icon </metadata>
<g><g transform="translate(0.000000,512.000000) scale(0.100000,-0.100000)"><path d="M4563.1,5003.1c-252.9-23-509.6-69-800.8-141.8c-335.3-86.2-570.9-174.3-917.7-344.8c-536.4-262.5-862.1-496.2-1302.8-938.7c-442.6-440.6-676.3-766.3-938.7-1302.7C304.2,1667.7,160.5,1125.5,110.7,430.1c-46-641.8,57.5-1377.5,281.6-1988.6c101.5-279.7,350.6-772.1,515.4-1019.2c641.8-965.6,1626.5-1693.6,2716.6-2005.8c1557.5-450.2,3193.7-120.7,4460,896.6c396.6,318,833.4,816.2,1097.8,1249.1c883.2,1452.2,956,3245.4,193.5,4762.7c-373.6,745.2-971.3,1417.7-1678.3,1887.1c-247.1,164.8-739.5,413.8-1019.2,515.4C6030.6,4964.8,5258.5,5064.4,4563.1,5003.1z M5471.2,4926.5c1415.8-139.8,2693.6-894.7,3509.8-2074.8c846.8-1222.3,1074.8-2816.2,607.3-4235.9c-480.9-1463.7-1622.7-2603.6-3084.5-3084.5c-603.5-199.2-1310.4-279.7-1936.9-222.2C2074.4-4460.9,172-2378.5,172,119.7c0,2128.5,1392.8,4006,3431.2,4624.8c251,74.7,653.3,157.1,898.5,182C4741.2,4949.5,5229.8,4951.4,5471.2,4926.5z"/><path d="M4319.8,2570.1l-74.7-270.1l-500-243.3l-500-245.2l-59.4-134.1c-118.8-262.5-203.1-661-226.1-1049.9c-7.7-115-24.9-300.8-40.2-411.9c-49.8-360.2-63.2-638-44.1-894.7c9.6-136,26.8-455.9,36.4-714.6c23-601.6,49.8-858.3,95.8-910c19.2-21.1,40.2-86.2,46-145.6c21.1-168.6,42.2-180.1,281.6-143.7c247.1,36.4,272,55.5,249.1,201.1c-11.5,70.9-9.6,116.9,5.7,145.6c15.3,28.7,19.2,86.2,11.5,164.7c-7.7,67.1-5.7,149.4,3.8,180.1c7.7,32.5,11.5,109.2,5.7,172.4c-5.7,63.2-3.8,159,5.7,210.7c15.3,80.4,19.2,51.7,21.1-168.6l1.9-266.3l59.4-55.5c61.3-57.5,61.3-57.5,47.9-205c-19.2-229.9-32.6-222.2,413.8-237.6c473.2-15.3,1185.9-15.3,1659.1,0c446.4,15.3,431.1,5.8,413.8,245.2c-11.5,149.4-11.5,157.1,28.7,180.1c24.9,11.5,57.5,53.6,72.8,91.9c28.7,67.1,32.6,69,42.2,24.9c7.6-24.9,5.7-101.6,0-172.4c-7.7-86.2-3.8-137.9,11.5-166.7c19.2-28.7,21.1-65.1,7.7-132.2c-30.7-162.8-11.5-180.1,285.4-220.3c199.2-26.8,222.2-11.5,243.3,149.4c7.7,59.4,26.8,124.5,44.1,143.7c59.4,67.1,90,467.5,128.4,1708.9c11.5,367.8,9.6,459.8-24.9,718.4c-23,162.8-49.8,425.3-61.3,580.5c-26.8,392.7-99.6,716.5-226.1,996.2l-47.9,113l-492.4,245.2l-490.5,245.2l-74.7,270.1l-76.6,270.1h-605.4h-603.5L4319.8,2570.1z M5388.8,2713.7c-55.6-26.8-149.4-57.5-210.7-69c-61.3-9.6-124.5-24.9-139.9-32.6s-49.8-7.7-76.6,0c-26.8,7.7-97.7,23-159,34.5c-61.3,11.5-155.2,40.2-210.7,67.1l-99.6,46h498.1h498.1L5388.8,2713.7z M4559.2,2650.5c63.2-30.7,172.4-67.1,239.5-80.5l124.5-24.9v-260.6v-262.5l-118.8,17.2c-149.4,19.2-229.9,44.1-346.8,107.3c-145.6,78.5-153.3,109.2-84.3,354.4c32.6,113,59.4,205,63.2,205C4438.5,2706.1,4494.1,2681.2,4559.2,2650.5z M5624.4,2497.3c53.6-193.5,57.5-212.7,28.7-258.6c-55.6-92-329.5-203.1-503.9-203.1h-72.8v256.7v254.8l111.1,23c59.4,11.5,160.9,46,224.2,76.6c63.2,30.7,124.5,57.5,134.1,57.5C5557.4,2706.1,5591.8,2612.2,5624.4,2497.3z M5032.4-1148.5c-1.9-678.2-3.8-124.5-3.8,1230c0,1354.5,1.9,1908.1,3.8,1231.9C5036.3,635.1,5036.3-472.2,5032.4-1148.5z M4975-1148.5c-1.9-678.2-3.8-128.3-3.8,1220.4c0,1348.7,1.9,1902.4,3.8,1231.9C4978.8,633.2,4978.8-470.3,4975-1148.5z M4271.9,2204.1c-1.9-23-814.2-515.4-873.6-528.8c-23-5.8-61.3,84.3-44.1,99.6c15.3,13.4,888.9,450.2,904.3,450.2C4266.1,2227.1,4271.9,2215.6,4271.9,2204.1z M6185.8,2004.9c237.5-124.5,436.8-226.1,440.6-229.9c13.4-11.5-19.2-103.5-38.3-103.5c-13.4,0-839.1,479-877.5,509.6c-7.7,7.7,17.2,46,30.7,46C5747,2227.1,5946.3,2127.5,6185.8,2004.9z M4427,2083.4c128.4-67.1,323.8-124.5,434.9-124.5h61.3V-35.4v-1992.4l-319.9,11.5c-701.2,23-827.6,32.6-862.1,57.5c-32.6,23-34.5,91.9-46,1009.6c-13.4,1013.5-34.5,1461.8-84.3,1753c-36.4,212.6-113,519.2-170.5,689.7l-46,132.2l444.5,262.5c243.3,143.7,446.4,262.5,452.1,262.5C4296.8,2150.5,4358.1,2119.8,4427,2083.4z M6151.3,1880.4c371.7-220.3,421.5-254.8,413.8-291.2c-5.7-23-40.2-151.4-76.6-285.5c-149.4-534.5-182-892.8-199.3-2283.6c-9.6-854.4-15.3-940.7-44.1-969.4c-36.4-36.4-116.9-42.2-856.4-67.1l-312.3-9.6V-33.5v1992.4h59.4c107.3,0,314.2,59.4,429.2,122.6c63.2,36.4,126.4,61.3,139.9,57.5C5716.4,2135.2,5919.5,2020.2,6151.3,1880.4z M3421.2,1307.5c128.4-440.6,170.5-798.9,191.6-1603.5c9.6-419.6,5.7-519.2-30.7-848.7c-24.9-216.5-46-519.2-47.9-718.4l-5.7-344.9l-187.8-11.5c-105.4-5.7-212.7-17.2-239.5-24.9c-46-13.4-51.7-7.7-63.2,47.9c-5.8,32.5-11.5,111.1-11.5,172.4c0,61.3-9.6,134.1-19.2,162.8c-23,59.4-67.1,1111.2-65.1,1492.4c1.9,137.9,17.2,344.8,34.5,459.8c17.2,116.9,44.1,365.9,57.5,555.6c34.5,434.9,97.7,733.8,206.9,982.8l38.3,90l47.9-124.5C3352.3,1527.9,3394.4,1397.6,3421.2,1307.5z M6762.4,1577.7c88.1-224.2,153.3-557.5,182-925.3c15.3-197.3,36.4-413.8,46-479c51.7-318,61.3-563.2,42.1-915.7c-11.5-195.4-30.6-526.8-40.2-737.6c-11.5-210.7-26.8-456-36.4-546c-9.6-90.1-19.2-178.2-19.2-199.2c-1.9-28.7-11.5-32.6-53.6-21.1c-30.6,7.6-139.9,21.1-243.3,26.8l-189.7,11.5l-3.8,325.7c-1.9,180.1-24.9,519.2-47.9,756.7c-42.1,411.9-42.1,457.9-21.1,996.2c24.9,638,42.1,814.2,111.1,1138c55.5,270.1,195.4,710.8,218.4,687.8C6714.5,1688.8,6739.4,1633.2,6762.4,1577.7z M6373.5-1704.1c-3.8-24.9-7.7-5.7-7.7,42.2c0,47.9,3.8,67.1,7.7,44C6377.3-1642.8,6377.3-1681.1,6373.5-1704.1z M4611-2083.4c298.9,0,312.3-1.9,312.3-38.3c0-36.4-13.4-38.3-398.5-38.3c-220.3,0-465.5,5.7-546,11.5c-130.3,11.5-147.5,17.2-147.5,51.7c0,36.4,7.7,38.3,233.7,26.8C4191.4-2077.7,4438.5-2083.4,4611-2083.4z M6149.4-2100.7c0-28.7-21.1-36.4-147.5-47.9c-80.5-5.8-321.8-11.5-536.4-11.5c-375.5,0-388.9,1.9-388.9,38.3c0,36.4,15.3,38.3,388.9,44c212.6,1.9,454.1,5.8,536.4,9.6C6134-2064.3,6149.4-2068.1,6149.4-2100.7z M4658.9-2198.4h264.4v-47.9v-47.9h-396.6c-220.3,0-469.4,5.7-555.6,13.4c-153.3,11.5-159,13.4-159,59.4v47.9l291.2-11.5C4262.3-2192.7,4511.3-2198.4,4658.9-2198.4z M6168.5-2223.3c0-44.1-7.7-46-185.8-57.5c-103.5-7.7-348.7-13.4-546-13.4h-360.2v47.9v47.9l360.2,5.7c197.3,1.9,442.5,5.8,546,9.6C6166.6-2179.2,6168.5-2179.2,6168.5-2223.3z M3496-2303.8c0-9.6-63.2-24.9-139.8-32.6c-76.6-5.7-160.9-17.2-185.8-23c-42.1-11.5-84.3,15.3-61.3,38.3c13.4,13.4,243.3,42.1,319.9,38.3C3465.3-2282.7,3496-2292.3,3496-2303.8z M6816-2305.7c65.1-13.4,76.6-59.4,11.5-51.7c-19.2,1.9-95.8,9.6-170.5,17.2c-164.8,13.4-187.7,21.1-170.5,47.9C6498-2271.2,6657-2278.9,6816-2305.7z M4658.9-2332.5c222.2,0,264.4-3.8,264.4-28.7c0-32.6-237.6-38.3-791.2-15.3c-266.3,9.6-319.9,17.2-319.9,40.2c0,24.9,40.2,26.8,291.2,17.2C4262.3-2326.8,4511.3-2332.5,4658.9-2332.5z M6168.5-2338.3c0-21.1-70.9-28.7-319.9-38.3c-546-23-772.1-17.3-772.1,15.3c0,23,57.5,28.7,350.6,34.5c191.6,1.9,436.8,5.8,546,9.6C6126.4-2313.3,6168.5-2319.1,6168.5-2338.3z M3505.5-2388.1c0-30.6-24.9-38.3-168.6-57.5c-214.6-26.8-214.6-26.8-214.6,7.7c0,38.3,24.9,47.9,185.8,65.1C3507.5-2347.8,3505.5-2347.8,3505.5-2388.1z M6739.4-2382.3c92-9.6,143.7-46,113-76.6c-5.8-5.8-95.8,0-201.2,13.4c-174.4,21.1-189.7,24.9-180.1,59.4c7.7,32.6,21.1,36.4,88.1,26.8C6603.4-2365.1,6683.9-2374.7,6739.4-2382.3z M3515.1-2483.8c-23-19.2-354.4-65.1-369.7-51.7c-19.2,21.1,13.4,34.5,114.9,49.8C3404-2464.7,3536.2-2462.8,3515.1-2483.8z M6704.9-2487.7c126.4-19.2,149.4-28.7,130.3-47.9c-15.3-13.4-346.7,32.6-367.8,51.7C6442.5-2460.9,6553.6-2462.8,6704.9-2487.7z"/><path d="M5574.6,2246.3c0-9.6,9.6-19.2,19.2-19.2c11.5,0,19.2,9.6,19.2,19.2c0,11.5-7.7,19.2-19.2,19.2C5584.2,2265.4,5574.6,2257.8,5574.6,2246.3z"/><path d="M5415.6,2175.4c-61.3-24.9-155.2-51.7-206.9-57.5c-93.9-11.5-132.2-44.1-49.8-44.1c101.5,0,396.6,101.5,396.6,137.9C5555.4,2232.9,5543.9,2231,5415.6,2175.4z"/><path d="M3919.4-782.6c-19.2-59.4-164.8-923.4-157.1-931.1c3.8-5.7,36.4-11.5,70.9-11.5l63.2-3.8l82.4,467.5c46,256.7,80.5,469.4,76.6,473.2c-3.8,3.8-34.5,13.4-67.1,19.2C3946.2-759.6,3925.1-765.4,3919.4-782.6z M3900.2-1204.1c-84.3-475.1-90-501.9-99.6-490.5c-5.7,5.8,21.1,183.9,59.4,398.5c84.3,486.6,88.1,500,99.6,490.4C3963.4-811.3,3936.6-991.4,3900.2-1204.1z M3948.1-1250.1c-44.1-241.4-82.4-440.6-88.1-446.4c-15.3-17.3-11.5,13.4,57.5,408.1c82.4,467.5,88.1,494.3,97.7,482.8C4020.9-811.3,3990.2-1010.6,3948.1-1250.1z"/><path d="M3754.6-1815.2c0-38.3,46-115,74.7-122.6c69-19.2,615-32.6,615-15.3c0,9.6-128.4,21.1-296.9,26.8c-306.5,11.5-354.4,23-354.4,93.9c0,21.1-7.7,36.4-19.2,36.4C3764.2-1796.1,3754.6-1803.7,3754.6-1815.2z"/><path d="M4482.6-1949.3c0-9.6,9.6-19.2,19.2-19.2c11.5,0,19.2,9.6,19.2,19.2c0,11.5-7.7,19.2-19.2,19.2C4492.2-1930.2,4482.6-1937.8,4482.6-1949.3z"/><path d="M6323.7,939.7c-59.4-323.8-115-1088.2-78.5-1088.2c11.5,0,19.2,26.8,19.2,57.5c0,314.2,61.3,894.7,126.4,1193.5c7.7,28.7,3.8,51.7-7.6,51.7C6373.5,1154.3,6346.7,1056.6,6323.7,939.7z"/><path d="M6226-205.9c0-9.6,9.6-19.2,19.2-19.2c11.5,0,19.2,9.6,19.2,19.2c0,11.5-7.7,19.2-19.2,19.2C6235.6-186.8,6226-194.5,6226-205.9z"/><path d="M5982.7-775c-26.8-5.7-44.1-23-44.1-42.1c0-17.2,34.5-229.9,76.6-469.4c42.1-239.5,76.6-438.7,76.6-444.5c0-13.4,103.5-7.7,126.4,7.6c13.4,9.6,3.8,105.4-32.5,310.4c-28.7,162.8-67.1,377.4-84.3,475.1c-19.2,107.3-40.2,174.3-53.6,174.3C6034.4-765.4,6005.7-771.1,5982.7-775z M6080.4-1334.4c34.5-201.2,59.4-365.9,51.7-365.9c-11.5,0-159,835.3-153.3,871.7C5982.7-797.9,6013.3-947.4,6080.4-1334.4z M6120.6-1238.6c38.3-214.6,67.1-408.1,63.2-431.1c-5.7-40.2-151.3,777.8-147.5,831.5C6038.2-786.4,6051.6-843.9,6120.6-1238.6z"/><path d="M3018.9,129.3c-5.8-15.3-21.1-145.6-32.6-287.4c-19.2-195.4-19.2-323.8-1.9-549.9c13.4-160.9,23-408,23-546c0-178.1,5.7-254.8,21.1-254.8c23,0,17.2,300.8-13.4,971.3c-7.7,157.1-3.8,335.3,11.5,467.5C3047.7,129.3,3045.7,198.3,3018.9,129.3z"/><path d="M6494.2-2139c0-13.4,36.4-21.1,93.9-21.1c49.8,0,134.1-5.8,185.8-11.5c69-9.6,88.1-7.7,74.7,7.6C6819.9-2133.3,6494.2-2110.3,6494.2-2139z"/></g></g>
</svg>